<svg width="64" height="64" viewBox="0 0 64 64" fill="none" xmlns="http://www.w3.org/2000/svg">
<path d="M21.6126 14.1414C23.0301 13.7834 24.4925 13.4966 25.9919 13.2869C25.2987 10.1309 24.3359 7.08445 23.0059 4H15.0533C17.9566 7.49797 20.0745 10.8216 21.6126 14.1414Z" fill="#F3C521"/>
<path d="M26.5999 16.4906C25.3138 16.6747 24.0751 16.924 22.8822 17.233C24.3054 21.1919 25.001 25.2199 25.3135 29.6024C25.3634 30.3018 25.4035 31.0103 25.4353 31.729C25.4847 32.8479 25.5139 33.9915 25.5281 35.1642C25.5349 35.7173 25.5382 36.2769 25.5388 36.8435C25.5402 38.1434 25.5269 39.4798 25.5058 40.8583C25.4952 41.5456 25.4827 42.2435 25.469 42.9524C25.3918 46.9598 25.2781 51.3231 25.2781 56.1667C26.019 56.3018 26.7763 56.4149 27.5503 56.5047C27.5503 51.5163 27.6042 47.0038 27.6469 42.8686C27.654 42.1806 27.6608 41.5031 27.667 40.8355C27.6797 39.4577 27.6899 38.1225 27.6948 36.8259C27.6969 36.2723 27.6981 35.7257 27.6981 35.1858C27.698 34.0102 27.6925 32.8666 27.6794 31.7516C27.6712 31.0599 27.6601 30.3792 27.6456 29.7088C27.5405 24.8617 27.2557 20.5519 26.5999 16.4906Z" fill="#F3C521"/>
<path d="M32 16.1158C31.2815 16.1158 30.5758 16.1346 29.8825 16.1714C30.2955 20.2763 30.5243 24.8605 30.6487 29.7581C30.6655 30.4203 30.6804 31.0882 30.6936 31.7615C30.7158 32.892 30.7331 34.0374 30.7466 35.1959C30.7528 35.7338 30.7582 36.2744 30.7629 36.8177C30.7742 38.1388 30.7811 39.4753 30.7849 40.8245C30.7868 41.4894 30.788 42.1573 30.7885 42.8279C30.7923 47.3729 30.7692 52.0442 30.7692 56.7378C31.1753 56.7501 31.5855 56.7564 32 56.7564V16.1158Z" fill="#F3C521"/>
<path d="M29.5046 12.9428C30.3281 12.8961 31.1603 12.8722 32 12.8722V4H27.5503C28.4064 6.47741 29.0386 9.49846 29.5046 12.9428Z" fill="#F3C521"/>
<path fill-rule="evenodd" clip-rule="evenodd" d="M29.8825 16.1714C30.5758 16.1346 31.2815 16.1158 32 16.1158V12.8722C31.1603 12.8722 30.3281 12.8961 29.5046 12.9428C28.3143 13.0104 27.1422 13.126 25.9919 13.2869C24.4925 13.4966 23.0301 13.7834 21.6126 14.1414C9.03823 17.3175 0 26.0996 0 36.4361C0 49.4501 14.3269 60 32 60V56.7564C31.5855 56.7564 31.1753 56.7501 30.7692 56.7378C29.6655 56.7042 28.5928 56.6256 27.5503 56.5047C26.7763 56.4149 26.019 56.3018 25.2781 56.1667C20.0964 55.2212 15.7147 53.1933 12.0292 50.4794C10.3958 49.2766 9.08637 47.9563 8.05888 46.5486C7.19437 45.3641 6.52945 44.1179 6.03907 42.8279C5.55733 41.5607 5.24404 40.2512 5.07545 38.9165C4.97204 38.0979 4.92308 37.2697 4.92308 36.4361C4.92308 35.4402 4.99296 34.4522 5.14208 33.4787C5.33662 32.2087 5.66602 30.9635 6.15103 29.7581C6.68214 28.4381 7.39984 27.1659 8.33136 25.961C9.31491 24.6888 10.5368 23.4917 12.0292 22.3928C15.1326 20.1076 18.7296 18.3087 22.8822 17.233C24.0751 16.924 25.3138 16.6747 26.5999 16.4906C27.6616 16.3387 28.7555 16.2312 29.8825 16.1714Z" fill="#F3C521"/>
<path d="M25.4353 31.729C25.4035 31.0103 25.3634 30.3018 25.3135 29.6024C18.6054 29.2091 11.9934 28.0547 8.33136 25.961C7.39984 27.1659 6.68214 28.4381 6.15103 29.7581C10.381 30.9658 14.8996 31.586 25.4353 31.729Z" fill="#F3C521"/>
<path d="M27.6456 29.7088C27.6601 30.3792 27.6712 31.0599 27.6794 31.7516C28.6376 31.7582 29.6412 31.7615 30.6936 31.7615C30.6804 31.0882 30.6655 30.4203 30.6487 29.7581C29.6595 29.7581 28.6552 29.7419 27.6456 29.7088Z" fill="#F3C521"/>
<path d="M25.5388 36.8435C25.5382 36.2769 25.5349 35.7173 25.5281 35.1642C15.3048 35.0297 10.1064 34.4678 5.14208 33.4787C4.99296 34.4522 4.92308 35.4402 4.92308 36.4361C4.92308 37.2697 4.97204 38.0979 5.07545 38.9165C8.94746 37.5777 13.8006 36.9703 25.5388 36.8435Z" fill="#F3C521"/>
<path d="M27.6981 35.1858C27.6981 35.7257 27.6969 36.2723 27.6948 36.8259C28.6728 36.8204 29.6946 36.8177 30.7629 36.8177C30.7582 36.2744 30.7528 35.7338 30.7466 35.1959C29.6858 35.1959 28.6708 35.1925 27.6981 35.1858Z" fill="#F3C521"/>
<path d="M25.469 42.9524C25.4827 42.2435 25.4952 41.5456 25.5058 40.8583C14.0347 41.0183 10.3425 41.7385 6.03907 42.8279C6.52945 44.1179 7.19437 45.3641 8.05888 46.5486C13.1904 44.578 17.9374 43.3332 25.469 42.9524Z" fill="#F3C521"/>
<path d="M27.667 40.8355C27.6608 41.5031 27.654 42.1806 27.6469 42.8686C28.6451 42.8416 29.6903 42.8279 30.7885 42.8279C30.788 42.1573 30.7868 41.4894 30.7849 40.8245C29.6908 40.8245 28.6529 40.8282 27.667 40.8355Z" fill="#F3C521"/>
<path d="M42.3874 14.1414C40.9699 13.7834 39.5075 13.4966 38.0081 13.2869C38.7013 10.1309 39.6641 7.08445 40.9941 4H48.9467C46.0434 7.49797 43.9255 10.8216 42.3874 14.1414Z" fill="#F3C521"/>
<path d="M37.4001 16.4906C38.6862 16.6747 39.9249 16.924 41.1178 17.233C39.6946 21.1919 38.999 25.2199 38.6865 29.6024C38.6366 30.3018 38.5965 31.0103 38.5647 31.729C38.5153 32.8479 38.4861 33.9915 38.4719 35.1642C38.4651 35.7173 38.4618 36.2769 38.4612 36.8435C38.4598 38.1434 38.4731 39.4798 38.4942 40.8583C38.5048 41.5456 38.5173 42.2435 38.531 42.9524C38.6082 46.9598 38.7219 51.3231 38.7219 56.1667C37.981 56.3018 37.2237 56.4149 36.4497 56.5047C36.4497 51.5163 36.3958 47.0038 36.3531 42.8686C36.346 42.1806 36.3392 41.5031 36.333 40.8355C36.3203 39.4577 36.3101 38.1225 36.3052 36.8259C36.3031 36.2723 36.3019 35.7257 36.3019 35.1858C36.302 34.0102 36.3075 32.8666 36.3206 31.7516C36.3288 31.0599 36.3399 30.3792 36.3544 29.7088C36.4595 24.8617 36.7443 20.5519 37.4001 16.4906Z" fill="#F3C521"/>
<path d="M32 16.1158C32.7185 16.1158 33.4242 16.1346 34.1175 16.1714C33.7045 20.2763 33.4757 24.8605 33.3513 29.7581C33.3345 30.4203 33.3195 31.0882 33.3064 31.7615C33.2842 32.892 33.2669 34.0374 33.2534 35.1959C33.2472 35.7338 33.2418 36.2744 33.2371 36.8177C33.2258 38.1388 33.2189 39.4753 33.2151 40.8245C33.2132 41.4894 33.212 42.1573 33.2115 42.8279C33.2077 47.3729 33.2308 52.0442 33.2308 56.7378C32.8247 56.7501 32.4145 56.7564 32 56.7564V16.1158Z" fill="#F3C521"/>
<path d="M34.4954 12.9428C33.6719 12.8961 32.8397 12.8722 32 12.8722V4H36.4497C35.5936 6.47741 34.9614 9.49846 34.4954 12.9428Z" fill="#F3C521"/>
<path fill-rule="evenodd" clip-rule="evenodd" d="M34.1175 16.1714C33.4242 16.1346 32.7185 16.1158 32 16.1158V12.8722C32.8397 12.8722 33.6719 12.8961 34.4954 12.9428C35.6857 13.0104 36.8578 13.126 38.0081 13.2869C39.5075 13.4966 40.9699 13.7834 42.3874 14.1414C54.9618 17.3175 64 26.0996 64 36.4361C64 49.4501 49.6731 60 32 60V56.7564C32.4145 56.7564 32.8247 56.7501 33.2308 56.7378C34.3345 56.7042 35.4072 56.6256 36.4497 56.5047C37.2237 56.4149 37.981 56.3018 38.7219 56.1667C43.9036 55.2212 48.2853 53.1933 51.9708 50.4794C53.6042 49.2766 54.9136 47.9563 55.9411 46.5486C56.8056 45.3641 57.4705 44.1179 57.9609 42.8279C58.4427 41.5607 58.756 40.2512 58.9246 38.9165C59.028 38.0979 59.0769 37.2697 59.0769 36.4361C59.0769 35.4402 59.007 34.4522 58.8579 33.4787C58.6634 32.2087 58.334 30.9635 57.849 29.7581C57.3179 28.4381 56.6002 27.1659 55.6686 25.961C54.6851 24.6888 53.4632 23.4917 51.9708 22.3928C48.8674 20.1076 45.2704 18.3087 41.1178 17.233C39.9249 16.924 38.6862 16.6747 37.4001 16.4906C36.3384 16.3387 35.2445 16.2312 34.1175 16.1714Z" fill="#F3C521"/>
<path d="M38.5647 31.729C38.5965 31.0103 38.6366 30.3018 38.6865 29.6024C45.3946 29.2091 52.0066 28.0547 55.6686 25.961C56.6002 27.1659 57.3179 28.4381 57.849 29.7581C53.619 30.9658 49.1004 31.586 38.5647 31.729Z" fill="#F3C521"/>
<path d="M36.3544 29.7088C36.3399 30.3792 36.3288 31.0599 36.3206 31.7516C35.3624 31.7582 34.3588 31.7615 33.3064 31.7615C33.3195 31.0882 33.3345 30.4203 33.3513 29.7581C34.3405 29.7581 35.3448 29.7419 36.3544 29.7088Z" fill="#F3C521"/>
<path d="M38.4612 36.8435C38.4618 36.2769 38.4651 35.7173 38.4719 35.1642C48.6952 35.0297 53.8936 34.4678 58.8579 33.4787C59.007 34.4522 59.0769 35.4402 59.0769 36.4361C59.0769 37.2697 59.028 38.0979 58.9246 38.9165C55.0525 37.5777 50.1994 36.9703 38.4612 36.8435Z" fill="#F3C521"/>
<path d="M36.3019 35.1858C36.3019 35.7257 36.3031 36.2723 36.3052 36.8259C35.3272 36.8204 34.3054 36.8177 33.2371 36.8177C33.2418 36.2744 33.2472 35.7338 33.2534 35.1959C34.3142 35.1959 35.3293 35.1925 36.3019 35.1858Z" fill="#F3C521"/>
<path d="M38.531 42.9524C38.5173 42.2435 38.5048 41.5456 38.4942 40.8583C49.9653 41.0183 53.6575 41.7385 57.9609 42.8279C57.4705 44.1179 56.8056 45.3641 55.9411 46.5486C50.8096 44.578 46.0626 43.3332 38.531 42.9524Z" fill="#F3C521"/>
<path d="M36.333 40.8355C36.3392 41.5031 36.346 42.1806 36.3531 42.8686C35.3549 42.8416 34.3097 42.8279 33.2115 42.8279C33.212 42.1573 33.2132 41.4894 33.2151 40.8245C34.3092 40.8245 35.3471 40.8282 36.333 40.8355Z" fill="#F3C521"/>
</svg>
