<svg width="30" height="29" viewBox="0 0 30 29" fill="none" xmlns="http://www.w3.org/2000/svg">
<g clip-path="url(#clip0_4807_1315)">
<path fill-rule="evenodd" clip-rule="evenodd" d="M17.7858 3.70233L15.1025 6.3023C15.0459 6.35743 14.9542 6.35771 14.8973 6.3023L12.2139 3.70233C12.1487 3.63932 12.087 3.57322 12.0295 3.50459C11.6866 3.09672 11.4441 2.56508 11.3878 2.03372C11.3297 1.4914 11.4647 0.948506 11.88 0.531353C11.9247 0.486347 11.9714 0.444153 12.02 0.404491C12.23 0.232904 12.4651 0.122077 12.71 0.0604742C13.1381 -0.0469784 13.5954 -0.00309655 13.9955 0.127984C14.3971 0.259347 14.7444 0.48044 14.95 0.725162C14.9679 0.745978 14.9843 0.767356 15 0.788734C15.0155 0.767356 15.0322 0.745978 15.0498 0.725162C15.2554 0.48044 15.6027 0.259347 16.0046 0.127984C16.4047 -0.00309655 16.8617 -0.0469784 17.2898 0.0604742C17.5347 0.122077 17.7698 0.232904 17.9801 0.404491C18.0284 0.444153 18.0751 0.486347 18.1198 0.531353C18.5354 0.948506 18.6701 1.4914 18.6123 2.03372C18.5557 2.56508 18.3132 3.09672 17.9703 3.50459C17.9128 3.57322 17.8511 3.63932 17.7858 3.70233Z" fill="#CCCCCC"/>
<path fill-rule="evenodd" clip-rule="evenodd" d="M20.8539 14.1379C20.2823 15.7114 19.2239 17.1351 17.7486 18.2061C17.7458 18.2084 17.743 18.2104 17.7402 18.2125L15.2134 19.9089C15.191 19.9268 15.1622 19.9375 15.1307 19.9375C15.0583 19.9375 15 19.8808 15 19.8109V15.8837C15 14.9561 15.2459 14.0748 15.6805 13.2991C16.1289 12.4987 16.7792 11.8109 17.5683 11.2999L20.8265 9.08915C20.8393 9.07932 20.8545 9.0718 20.8717 9.06717C20.9413 9.04838 21.0131 9.08799 21.0321 9.15507C21.5108 10.8295 21.4277 12.5589 20.8539 14.1379Z" fill="#CCCCCC"/>
<path fill-rule="evenodd" clip-rule="evenodd" d="M9.14609 14.1379C9.71772 15.7114 10.7761 17.1351 12.2514 18.2061C12.2542 18.2084 12.257 18.2104 12.2598 18.2125L14.7866 19.9089C14.809 19.9268 14.8378 19.9375 14.8693 19.9375C14.9417 19.9375 15 19.8808 15 19.8109V15.8837C15 14.9561 14.7541 14.0748 14.3195 13.2991C13.8711 12.4987 13.2208 11.8109 12.4317 11.2999L9.17354 9.08915C9.16075 9.07932 9.14545 9.0718 9.12829 9.06717C9.05871 9.04838 8.98692 9.08799 8.96789 9.15507C8.48924 10.8295 8.57227 12.5589 9.14609 14.1379Z" fill="#CCCCCC"/>
<path fill-rule="evenodd" clip-rule="evenodd" d="M19.1816 8.33795C18.7733 9.51792 18.0169 10.5856 16.9633 11.389C16.9613 11.3907 16.9592 11.3921 16.9572 11.3935L15.1524 12.6662C15.1364 12.6796 15.1157 12.6875 15.0933 12.6875C15.0417 12.6875 15 12.645 15 12.5928V9.64695C15 8.95133 15.1755 8.29031 15.4859 7.70868C15.8065 7.10834 16.2708 6.59251 16.8344 6.20968L19.1618 4.5513C19.1711 4.54393 19.1819 4.53797 19.1942 4.53457C19.2437 4.52096 19.295 4.55045 19.3087 4.60064C19.6506 5.85662 19.5911 7.15343 19.1816 8.33795Z" fill="#CCCCCC"/>
<path fill-rule="evenodd" clip-rule="evenodd" d="M10.8184 8.33795C11.2267 9.51792 11.9831 10.5856 13.0367 11.389C13.0387 11.3907 13.0408 11.3921 13.0428 11.3935L14.8476 12.6662C14.8636 12.6796 14.8843 12.6875 14.9067 12.6875C14.9583 12.6875 15 12.645 15 12.5928V9.64695C15 8.95133 14.8245 8.29031 14.5141 7.70868C14.1935 7.10834 13.7292 6.59251 13.1656 6.20968L10.8382 4.5513C10.8289 4.54393 10.8181 4.53797 10.8058 4.53457C10.7563 4.52096 10.705 4.55045 10.6913 4.60064C10.3494 5.85662 10.4089 7.15343 10.8184 8.33795Z" fill="#CCCCCC"/>
<path fill-rule="evenodd" clip-rule="evenodd" d="M21.6905 22.2336C21.037 24.0695 19.8271 25.7308 18.1412 26.9799C18.1381 26.9825 18.1347 26.9849 18.1313 26.9872L15.2441 28.9666C15.218 28.9875 15.1852 29 15.1493 29C15.0666 29 15 28.9341 15 28.8521V24.2705C15 23.1882 15.2807 22.1598 15.7775 21.255C16.2901 20.3213 17.0332 19.519 17.9351 18.9229L21.6585 16.3436C21.6736 16.332 21.6911 16.3233 21.7104 16.3178C21.7896 16.2963 21.872 16.3422 21.8938 16.4206C22.441 18.3739 22.3458 20.3916 21.6905 22.2336Z" fill="#CCCCCC"/>
<path fill-rule="evenodd" clip-rule="evenodd" d="M8.30953 22.2336C8.96301 24.0695 10.1729 25.7308 11.8588 26.9799C11.8619 26.9825 11.8653 26.9849 11.8687 26.9872L14.7559 28.9666C14.782 28.9875 14.8148 29 14.8507 29C14.9334 29 15 28.9341 15 28.8521V24.2705C15 23.1882 14.7193 22.1598 14.2225 21.255C13.7099 20.3213 12.9668 19.519 12.0649 18.9229L8.34147 16.3436C8.32642 16.332 8.30893 16.3233 8.28959 16.3178C8.21036 16.2963 8.12804 16.3422 8.10623 16.4206C7.55901 18.3739 7.65421 20.3916 8.30953 22.2336Z" fill="#CCCCCC"/>
</g>
<defs>
<clipPath id="clip0_4807_1315">
<rect width="29" height="29" fill="white" transform="translate(0.5)"/>
</clipPath>
</defs>
</svg>
