<svg width="22" height="22" viewBox="0 0 22 22" fill="none" xmlns="http://www.w3.org/2000/svg">
<g clip-path="url(#clip0_1063_84792)">
<path fill-rule="evenodd" clip-rule="evenodd" d="M13.1134 2.80867L11.0778 4.78105C11.0348 4.82288 10.9652 4.82309 10.9221 4.78105L8.88643 2.80867C8.83694 2.76087 8.79017 2.71072 8.74655 2.65865C8.48642 2.34923 8.30245 1.94592 8.25973 1.54282C8.21566 1.1314 8.31803 0.719556 8.63308 0.403095C8.66698 0.368953 8.70247 0.336944 8.73931 0.306855C8.89864 0.176686 9.07696 0.0926099 9.26274 0.045877C9.58751 -0.0356388 9.93443 -0.00234911 10.238 0.0970917C10.5426 0.196746 10.8061 0.364472 10.9621 0.550123C10.9756 0.565914 10.9881 0.582132 11 0.59835C11.0118 0.582132 11.0244 0.565914 11.0378 0.550123C11.1937 0.364472 11.4572 0.196746 11.7621 0.0970917C12.0656 -0.00234911 12.4123 -0.0356388 12.7371 0.045877C12.9229 0.0926099 13.1012 0.176686 13.2608 0.306855C13.2974 0.336944 13.3328 0.368953 13.3667 0.403095C13.682 0.719556 13.7842 1.1314 13.7403 1.54282C13.6974 1.94592 13.5134 2.34923 13.2533 2.65865C13.2097 2.71072 13.1629 2.76087 13.1134 2.80867Z" fill="#A0366B"/>
<path fill-rule="evenodd" clip-rule="evenodd" d="M15.4409 10.7253C15.0072 11.919 14.2043 12.9991 13.0852 13.8115C13.083 13.8133 13.0809 13.8148 13.0788 13.8164L11.1619 15.1033C11.1449 15.1169 11.1231 15.125 11.0992 15.125C11.0443 15.125 11 15.082 11 15.0289V12.0497C11 11.346 11.1865 10.6775 11.5163 10.0889C11.8564 9.48179 12.3497 8.95996 12.9483 8.57236L15.4201 6.89522C15.4298 6.88776 15.4414 6.88206 15.4544 6.87855C15.5072 6.86429 15.5616 6.89434 15.5761 6.94523C15.9392 8.21548 15.8762 9.52741 15.4409 10.7253Z" fill="#A0366B"/>
<path fill-rule="evenodd" clip-rule="evenodd" d="M6.5591 10.7253C6.99275 11.919 7.79566 12.9991 8.91483 13.8115C8.91696 13.8133 8.91908 13.8148 8.92121 13.8164L10.8381 15.1033C10.8551 15.1169 10.8769 15.125 10.9008 15.125C10.9557 15.125 11 15.082 11 15.0289V12.0497C11 11.346 10.8135 10.6775 10.4837 10.0889C10.1436 9.48179 9.65029 8.95996 9.05165 8.57236L6.57993 6.89522C6.57022 6.88776 6.55862 6.88206 6.5456 6.87855C6.49281 6.86429 6.43835 6.89434 6.42392 6.94523C6.0608 8.21548 6.12379 9.52741 6.5591 10.7253Z" fill="#A0366B"/>
<path fill-rule="evenodd" clip-rule="evenodd" d="M14.1723 6.32534C13.8625 7.22049 13.2887 8.03046 12.4894 8.63992C12.4879 8.64121 12.4863 8.64229 12.4848 8.64336L11.1156 9.60886C11.1035 9.61898 11.0878 9.625 11.0708 9.625C11.0316 9.625 11 9.59273 11 9.55315V7.31838C11 6.79066 11.1331 6.2892 11.3686 5.84797C11.6118 5.39254 11.964 5.00122 12.3917 4.71079L14.1572 3.45271C14.1643 3.44712 14.1725 3.4426 14.1818 3.44002C14.2194 3.42969 14.2583 3.45206 14.2687 3.49014C14.528 4.44295 14.4829 5.42674 14.1723 6.32534Z" fill="#A0366B"/>
<path fill-rule="evenodd" clip-rule="evenodd" d="M7.82775 6.32534C8.13752 7.22049 8.71129 8.03046 9.5106 8.63992C9.51215 8.64121 9.51369 8.64229 9.51524 8.64336L10.8844 9.60886C10.8965 9.61898 10.9122 9.625 10.9292 9.625C10.9684 9.625 11 9.59273 11 9.55315V7.31838C11 6.79066 10.8669 6.2892 10.6314 5.84797C10.3882 5.39254 10.036 5.00122 9.60835 4.71079L7.84278 3.45271C7.8357 3.44712 7.82751 3.4426 7.81823 3.44002C7.78064 3.42969 7.74173 3.45206 7.73134 3.49014C7.47198 4.44295 7.51709 5.42674 7.82775 6.32534Z" fill="#A0366B"/>
<path fill-rule="evenodd" clip-rule="evenodd" d="M16.0755 16.8669C15.5798 18.2596 14.6619 19.5199 13.383 20.4675C13.3806 20.4695 13.3781 20.4713 13.3755 20.473L11.1852 21.9747C11.1654 21.9905 11.1405 22 11.1132 22C11.0506 22 11 21.95 11 21.8878V18.4121C11 17.591 11.2129 16.8109 11.5899 16.1245C11.9787 15.4162 12.5424 14.8075 13.2266 14.3553L16.0513 12.3986C16.0627 12.3898 16.076 12.3832 16.0907 12.379C16.1508 12.3627 16.2132 12.3975 16.2298 12.457C16.6449 13.9388 16.5727 15.4695 16.0755 16.8669Z" fill="#A0366B"/>
<path fill-rule="evenodd" clip-rule="evenodd" d="M5.92447 16.8669C6.42021 18.2596 7.33808 19.5199 8.61704 20.4675C8.61937 20.4695 8.62194 20.4713 8.6245 20.473L10.8148 21.9747C10.8346 21.9905 10.8595 22 10.8868 22C10.9494 22 11 21.95 11 21.8878V18.4121C11 17.591 10.7871 16.8109 10.4101 16.1245C10.0213 15.4162 9.45756 14.8075 8.77335 14.3553L5.9487 12.3986C5.93728 12.3898 5.92402 12.3832 5.90934 12.379C5.84924 12.3627 5.78679 12.3975 5.77025 12.457C5.35511 13.9388 5.42733 15.4695 5.92447 16.8669Z" fill="#A0366B"/>
</g>
<defs>
<clipPath id="clip0_1063_84792">
<rect width="22" height="22" fill="white"/>
</clipPath>
</defs>
</svg>
