<svg width="32" height="33" viewBox="0 0 32 33" fill="none" xmlns="http://www.w3.org/2000/svg">
<g clip-path="url(#clip0_1063_84670)">
<path d="M24.6985 11.2728V23.8676C24.6985 25.5714 23.3123 26.9576 21.6085 26.9576H15.9155L12.3493 29.4451L7.97742 32.4951V26.9576H3.08997C1.38624 26.9576 0 25.5714 0 23.8676V11.2728C0 9.56841 1.38624 8.1828 3.08997 8.1828H21.6085C23.3123 8.1828 24.6985 9.56841 24.6985 11.2728Z" fill="#F5D34F"/>
<path d="M24.6989 11.2728V23.8676C24.6989 25.5714 23.3126 26.9576 21.6089 26.9576H15.9158L12.3496 29.4451V8.1828H21.6089C23.3126 8.1828 24.6989 9.56841 24.6989 11.2728Z" fill="#FFA320"/>
<path d="M31.2986 4.59473L18.9571 16.9363L15.4238 17.0817L15.5692 13.5484L27.9108 1.20689C28.8463 0.271335 30.3635 0.270898 31.2991 1.20645C31.7667 1.67401 32.0009 2.28744 32.0005 2.90037C32.0004 3.5138 31.7662 4.12717 31.2986 4.59473Z" fill="#619CED"/>
<path d="M4.30078 12.989H12.3488V14.864H4.30078V12.989ZM4.30078 16.6284H12.3488V18.5033H4.30078V16.6284ZM4.30078 20.2677H20.3538V22.1427H4.30078V20.2677Z" fill="#FFA320"/>
<path d="M31.2986 4.5947L18.9571 16.9363L15.4238 17.0816L31.299 1.20642C31.7666 1.67398 32.0009 2.28741 32.0004 2.90034C32.0004 3.51377 31.7662 4.12714 31.2986 4.5947Z" fill="#4773CC"/>
<path d="M19.7778 16.1157L18.9571 16.9363L15.4238 17.0818L15.5692 13.5484L16.3899 12.7277L19.7778 16.1157Z" fill="#514C7E"/>
<path d="M19.7778 16.1156L18.9571 16.9363L15.4238 17.0818L18.0838 14.4217L19.7778 16.1156Z" fill="#2D2F5C"/>
<path d="M12.3496 20.2677H20.3545V22.1427H12.3496V20.2677Z" fill="#F78002"/>
</g>
<defs>
<clipPath id="clip0_1063_84670">
<rect width="32" height="32" fill="white" transform="translate(0 0.5)"/>
</clipPath>
</defs>
</svg>
