<svg width="32" height="32" viewBox="0 0 32 32" fill="none" xmlns="http://www.w3.org/2000/svg">
<path fill-rule="evenodd" clip-rule="evenodd" d="M20.6795 9.63642C20.6795 9.88958 20.5789 10.1324 20.3999 10.3114C20.2209 10.4904 19.9781 10.591 19.725 10.591C19.4718 10.591 19.229 10.4904 19.05 10.3114C18.871 10.1324 18.7704 9.88958 18.7704 9.63642V7.72733C18.7704 6.79907 18.4017 5.90883 17.7453 5.25245C17.0889 4.59608 16.1987 4.22733 15.2704 4.22733C14.3422 4.22733 13.4519 4.59608 12.7955 5.25245C12.1392 5.90883 11.7704 6.79907 11.7704 7.72733V9.63642C11.7704 9.88958 11.6699 10.1324 11.4908 10.3114C11.3118 10.4904 11.069 10.591 10.8159 10.591C10.5627 10.591 10.3199 10.4904 10.1409 10.3114C9.9619 10.1324 9.86133 9.88958 9.86133 9.63642V7.72733C9.86133 6.29275 10.4312 4.91692 11.4456 3.90252C12.46 2.88812 13.8358 2.31824 15.2704 2.31824C16.705 2.31824 18.0808 2.88812 19.0952 3.90252C20.1096 4.91692 20.6795 6.29275 20.6795 7.72733V9.63642Z" fill="white"/>
<path fill-rule="evenodd" clip-rule="evenodd" d="M24.6155 11.3546L25.6337 26.6273C25.6593 27.0185 25.6044 27.4107 25.4724 27.7798C25.3405 28.1489 25.1342 28.487 24.8665 28.7733C24.5987 29.0595 24.2751 29.2879 23.9156 29.4441C23.5561 29.6004 23.1684 29.6813 22.7764 29.6819H7.7659C7.37381 29.6817 6.98594 29.601 6.62629 29.4449C6.26664 29.2887 5.94287 29.0604 5.67502 28.7741C5.40718 28.4877 5.20096 28.1495 5.06913 27.7802C4.9373 27.411 4.88267 27.0186 4.90863 26.6273L5.92681 11.3546C5.97524 10.6298 6.29733 9.95047 6.82784 9.45421C7.35836 8.95796 8.05764 8.68188 8.78408 8.68188H21.7583C22.4847 8.68188 23.184 8.95796 23.7145 9.45421C24.245 9.95047 24.5671 10.6298 24.6155 11.3546ZM18.4352 14.3175C18.1506 14.9156 17.7023 15.4209 17.1423 15.7746C16.5823 16.1283 15.9335 16.3161 15.2712 16.3161C14.6088 16.3161 13.96 16.1283 13.4 15.7746C12.84 15.4209 12.3917 14.9156 12.1072 14.3175C12.0534 14.2043 11.9778 14.1028 11.8847 14.0187C11.7917 13.9347 11.683 13.8699 11.5648 13.8278C11.4467 13.7858 11.3215 13.7675 11.1963 13.7739C11.071 13.7803 10.9483 13.8112 10.8351 13.8651C10.7218 13.9189 10.6203 13.9945 10.5363 14.0875C10.4523 14.1806 10.3874 14.2893 10.3454 14.4074C10.3034 14.5255 10.285 14.6508 10.2914 14.776C10.2978 14.9012 10.3288 15.0239 10.3826 15.1372C10.821 16.0627 11.5131 16.8449 12.3785 17.3926C13.2439 17.9402 14.247 18.231 15.2712 18.231C16.2953 18.231 17.2984 17.9402 18.1638 17.3926C19.0292 16.8449 19.7214 16.0627 20.1597 15.1372C20.2135 15.0239 20.2445 14.9012 20.2509 14.776C20.2573 14.6508 20.239 14.5255 20.1969 14.4074C20.1549 14.2893 20.0901 14.1806 20.006 14.0875C19.922 13.9945 19.8205 13.9189 19.7073 13.8651C19.594 13.8112 19.4713 13.7803 19.3461 13.7739C19.2209 13.7675 19.0956 13.7858 18.9775 13.8278C18.8594 13.8699 18.7507 13.9347 18.6576 14.0187C18.5646 14.1028 18.489 14.2043 18.4352 14.3175Z" fill="white"/>
</svg>
