<svg width="29" height="29" viewBox="0 0 29 29" fill="none" xmlns="http://www.w3.org/2000/svg">
<path fill-rule="evenodd" clip-rule="evenodd" d="M20.1733 7.75581C20.1733 8.02411 20.0678 8.28143 19.8801 8.47114C19.6923 8.66086 19.4377 8.76744 19.1721 8.76744C18.9066 8.76744 18.652 8.66086 18.4642 8.47114C18.2765 8.28143 18.171 8.02411 18.171 7.75581V5.73256C18.171 4.74879 17.7842 3.80531 17.0958 3.10968C16.4074 2.41406 15.4737 2.02326 14.5001 2.02326C13.5265 2.02326 12.5928 2.41406 11.9044 3.10968C11.216 3.80531 10.8292 4.74879 10.8292 5.73256V7.75581C10.8292 8.02411 10.7237 8.28143 10.536 8.47114C10.3482 8.66086 10.0936 8.76744 9.82805 8.76744C9.56253 8.76744 9.30788 8.66086 9.12013 8.47114C8.93238 8.28143 8.8269 8.02411 8.8269 7.75581V5.73256C8.8269 4.21219 9.42461 2.75409 10.4885 1.67903C11.5525 0.603964 12.9955 0 14.5001 0C16.0047 0 17.4477 0.603964 18.5116 1.67903C19.5756 2.75409 20.1733 4.21219 20.1733 5.73256V7.75581Z" fill="#CCCCCC"/>
<path fill-rule="evenodd" clip-rule="evenodd" d="M24.3007 9.57675L25.3686 25.7628C25.3954 26.1773 25.3378 26.593 25.1994 26.9842C25.061 27.3753 24.8447 27.7337 24.5639 28.0371C24.283 28.3404 23.9436 28.5824 23.5666 28.748C23.1896 28.9137 22.7829 28.9994 22.3718 29H6.62837C6.21714 28.9998 5.81033 28.9143 5.43312 28.7488C5.05591 28.5833 4.71633 28.3414 4.4354 28.0379C4.15448 27.7344 3.93819 27.376 3.79993 26.9846C3.66166 26.5933 3.60437 26.1774 3.63159 25.7628L4.69948 9.57675C4.75028 8.80858 5.08809 8.08863 5.64451 7.5627C6.20093 7.03678 6.93436 6.74418 7.69627 6.74419H21.3039C22.0658 6.74418 22.7993 7.03678 23.3557 7.5627C23.9121 8.08863 24.2499 8.80858 24.3007 9.57675ZM17.8186 12.7168C17.5201 13.3507 17.05 13.8862 16.4626 14.261C15.8753 14.6359 15.1948 14.8349 14.5001 14.8349C13.8054 14.8349 13.1249 14.6359 12.5376 14.261C11.9502 13.8862 11.4801 13.3507 11.1816 12.7168C11.1252 12.5968 11.0459 12.4892 10.9483 12.4002C10.8507 12.3111 10.7367 12.2424 10.6128 12.1979C10.4889 12.1533 10.3575 12.1339 10.2262 12.1407C10.0949 12.1474 9.96617 12.1803 9.84741 12.2373C9.72864 12.2944 9.62216 12.3745 9.53404 12.4731C9.44591 12.5717 9.37788 12.6869 9.33381 12.8121C9.28974 12.9373 9.27051 13.07 9.27721 13.2027C9.28391 13.3354 9.31641 13.4655 9.37286 13.5855C9.83263 14.5664 10.5586 15.3953 11.4662 15.9758C12.3739 16.5562 13.4259 16.8643 14.5001 16.8643C15.5742 16.8643 16.6263 16.5562 17.534 15.9758C18.4416 15.3953 19.1676 14.5664 19.6273 13.5855C19.6838 13.4655 19.7163 13.3354 19.723 13.2027C19.7297 13.07 19.7104 12.9373 19.6664 12.8121C19.6223 12.6869 19.5543 12.5717 19.4661 12.4731C19.378 12.3745 19.2715 12.2944 19.1528 12.2373C19.034 12.1803 18.9053 12.1474 18.774 12.1407C18.6426 12.1339 18.5113 12.1533 18.3874 12.1979C18.2635 12.2424 18.1495 12.3111 18.0519 12.4002C17.9543 12.4892 17.875 12.5968 17.8186 12.7168Z" fill="#CCCCCC"/>
</svg>
