<svg width="30" height="29" viewBox="0 0 30 29" fill="none" xmlns="http://www.w3.org/2000/svg">
<g clip-path="url(#clip0_4807_1303)">
<path d="M0.947348 7.47371C0.812131 7.54639 0.699133 7.65435 0.620365 7.78612C0.541597 7.91788 0.500002 8.06853 0.5 8.22204V25.7815C0.500095 25.9282 0.538206 26.0725 0.610618 26.2001C0.683031 26.3278 0.787276 26.4345 0.913193 26.5098C1.03917 26.5853 1.18253 26.6268 1.32932 26.6304C1.47611 26.634 1.62133 26.5995 1.75085 26.5303C1.77974 26.5149 4.67878 24.9885 8.1748 24.9885C10.8666 24.9885 13.2041 25.8933 14.1504 26.3166V6.91223C12.8535 6.40195 10.6716 5.72986 8.1748 5.72986C4.23675 5.72986 1.07983 7.40251 0.947348 7.47371ZM11.5781 21.0766C11.4848 21.4664 11.1365 21.7285 10.7526 21.7285C10.6857 21.7285 10.619 21.7206 10.554 21.7049C9.45058 21.4407 8.36421 21.3067 7.32514 21.3067C6.28607 21.3067 5.19976 21.4407 4.09628 21.7049C3.63976 21.8143 3.18142 21.5329 3.07216 21.0766C2.96285 20.6202 3.24424 20.1617 3.70054 20.0525C4.93349 19.7572 6.15302 19.6075 7.3252 19.6075C8.49737 19.6075 9.7169 19.7572 10.9498 20.0525C11.4061 20.1617 11.6874 20.6203 11.5781 21.0766ZM11.5781 17.678C11.4848 18.0678 11.1365 18.3299 10.7526 18.3299C10.6857 18.3299 10.619 18.322 10.554 18.3063C9.45058 18.0421 8.36421 17.9081 7.32514 17.9081C6.28607 17.9081 5.19976 18.0421 4.09628 18.3063C3.63976 18.4158 3.18142 18.1342 3.07216 17.678C2.96285 17.2216 3.24424 16.7631 3.70054 16.6538C4.93349 16.3586 6.15302 16.2089 7.3252 16.2089C8.49737 16.2089 9.7169 16.3586 10.9498 16.6538C11.4061 16.7631 11.6874 17.2217 11.5781 17.678ZM11.5781 14.2794C11.4848 14.6692 11.1365 14.9313 10.7526 14.9313C10.6857 14.9313 10.619 14.9233 10.554 14.9077C9.45058 14.6435 8.36421 14.5095 7.32514 14.5095C6.28607 14.5095 5.19976 14.6435 4.09628 14.9077C3.63976 15.0171 3.18142 14.7357 3.07216 14.2794C2.96285 13.823 3.24424 13.3645 3.70054 13.2552C4.93349 12.96 6.15302 12.8102 7.3252 12.8102C8.49737 12.8102 9.7169 12.9599 10.9498 13.2552C11.4061 13.3645 11.6874 13.8231 11.5781 14.2794ZM11.5781 10.8808C11.4848 11.2706 11.1365 11.5327 10.7526 11.5327C10.687 11.5327 10.6205 11.525 10.554 11.5091C9.45063 11.2448 8.36427 11.1108 7.3252 11.1108C6.28612 11.1108 5.19976 11.2448 4.09634 11.5091C3.64027 11.6184 3.18154 11.3371 3.07222 10.8808C2.9629 10.4245 3.24424 9.96595 3.70059 9.85664C4.93349 9.56137 6.15302 9.41161 7.32525 9.41161C8.49749 9.41161 9.71702 9.56137 10.9499 9.85664C11.4061 9.96595 11.6874 10.4245 11.5781 10.8808ZM29.0526 7.47371C28.9201 7.40251 25.7632 5.72986 21.8251 5.72986C19.3284 5.72986 17.1464 6.40201 15.8495 6.91223V26.3166C16.7958 25.8932 19.1334 24.9885 21.8251 24.9885C25.3094 24.9885 28.2007 26.5047 28.2487 26.5301C28.3781 26.5995 28.5232 26.6342 28.67 26.6308C28.8168 26.6274 28.9602 26.586 29.0862 26.5107C29.2124 26.4353 29.3168 26.3285 29.3893 26.2006C29.4618 26.0728 29.4999 25.9284 29.4999 25.7814V8.22204C29.4999 8.06853 29.4583 7.91788 29.3796 7.78612C29.3008 7.65435 29.1878 7.54639 29.0526 7.47371ZM26.9278 21.0766C26.8344 21.4664 26.4862 21.7285 26.1022 21.7285C26.0367 21.7285 25.9702 21.7209 25.9037 21.7049C24.8002 21.4407 23.7139 21.3067 22.6748 21.3067C21.6358 21.3067 20.5494 21.4407 19.4459 21.7049C18.9897 21.8142 18.5311 21.5329 18.4218 21.0766C18.3125 20.6202 18.5939 20.1617 19.0502 20.0525C20.2832 19.7572 21.5027 19.6075 22.6749 19.6075C23.847 19.6075 25.0666 19.7572 26.2995 20.0525C26.7557 20.1617 27.0371 20.6203 26.9278 21.0766ZM26.9278 17.678C26.8344 18.0678 26.4862 18.3299 26.1022 18.3299C26.0367 18.3299 25.9702 18.3223 25.9037 18.3063C24.8002 18.0421 23.7139 17.9081 22.6748 17.9081C21.6358 17.9081 20.5494 18.0421 19.4459 18.3063C18.9897 18.4158 18.5311 18.1343 18.4218 17.678C18.3125 17.2216 18.5939 16.7631 19.0502 16.6538C20.2832 16.3586 21.5027 16.2089 22.6749 16.2089C23.847 16.2089 25.0666 16.3586 26.2995 16.6538C26.7557 16.7631 27.0371 17.2217 26.9278 17.678ZM26.9278 14.2794C26.8344 14.6692 26.4862 14.9313 26.1022 14.9313C26.0367 14.9313 25.9702 14.9237 25.9037 14.9077C24.8002 14.6435 23.7139 14.5095 22.6748 14.5095C21.6358 14.5095 20.5494 14.6435 19.4459 14.9077C18.9897 15.0172 18.5311 14.7357 18.4218 14.2794C18.3125 13.823 18.5939 13.3645 19.0502 13.2552C20.2832 12.96 21.5027 12.8102 22.6749 12.8102C23.847 12.8102 25.0666 12.9599 26.2995 13.2552C26.7557 13.3645 27.0371 13.8231 26.9278 14.2794ZM26.9278 10.8808C26.8344 11.2706 26.4862 11.5327 26.1022 11.5327C26.0367 11.5327 25.9702 11.525 25.9037 11.5091C24.8003 11.2448 23.7139 11.1108 22.6749 11.1108C21.6358 11.1108 20.5494 11.2448 19.446 11.5091C18.9898 11.6184 18.5312 11.3371 18.4219 10.8808C18.3126 10.4245 18.5939 9.96595 19.0503 9.85664C20.2832 9.56137 21.5027 9.41161 22.6749 9.41161C23.8472 9.41161 25.0667 9.56137 26.2996 9.85664C26.7558 9.96595 27.0371 10.4245 26.9278 10.8808ZM8.1748 2.36914C4.73763 2.36914 2.79162 3.19717 2.71051 3.2324C2.55866 3.29836 2.42938 3.40726 2.33857 3.5457C2.24777 3.68414 2.19939 3.8461 2.19939 4.01166V5.09554C3.66055 4.57841 5.77471 4.03064 8.1748 4.03064C10.5664 4.03064 12.6913 4.58481 14.1504 5.0999C14.1504 5.0999 12.3001 2.36914 8.1748 2.36914ZM27.8006 5.09554V4.01172C27.8006 3.84615 27.7522 3.68419 27.6614 3.54574C27.5706 3.4073 27.4413 3.29841 27.2894 3.23246C27.2083 3.19717 25.2623 2.3692 21.8251 2.3692C17.7376 2.3692 15.8495 5.09996 15.8495 5.09996C17.3087 4.58487 19.4335 4.03069 21.8251 4.03069C24.2253 4.03064 26.3395 4.57841 27.8006 5.09554Z" fill="#CCCCCC"/>
</g>
<defs>
<clipPath id="clip0_4807_1303">
<rect width="29" height="29" fill="white" transform="translate(0.5)"/>
</clipPath>
</defs>
</svg>
