<svg width="22" height="22" viewBox="0 0 22 22" fill="none" xmlns="http://www.w3.org/2000/svg">
<g clip-path="url(#clip0_1063_84764)">
<path d="M18.1656 21.8112L14.405 18.0513L12.5822 19.8741C12.4248 20.0314 12.1964 20.0963 11.9786 20.0459C11.8716 20.0207 11.7729 19.9685 11.6918 19.8944C11.6107 19.8203 11.55 19.7266 11.5153 19.6223L7.86908 8.68416C7.83116 8.57061 7.82561 8.44875 7.85307 8.33224C7.88053 8.21572 7.93991 8.10916 8.02454 8.0245C8.19637 7.85267 8.45255 7.78972 8.6842 7.86904L19.6224 11.5153C19.7266 11.5499 19.8203 11.6107 19.8944 11.6918C19.9686 11.7729 20.0208 11.8716 20.046 11.9785C20.0711 12.0854 20.0685 12.197 20.0384 12.3026C20.0083 12.4083 19.9518 12.5045 19.8741 12.5822L18.0513 14.405L21.8112 18.1655C22.0629 18.4172 22.0629 18.8251 21.8112 19.0769L19.077 21.8111C18.8252 22.063 18.4173 22.063 18.1656 21.8112ZM8.37891 5.15625C8.02265 5.15625 7.73438 4.86797 7.73438 4.51172V0.644531C7.73438 0.288277 8.02265 0 8.37891 0C8.73516 0 9.02344 0.288277 9.02344 0.644531V4.51172C9.02344 4.86797 8.73516 5.15625 8.37891 5.15625ZM5.18899 6.1004L2.45412 3.36553C2.20236 3.11377 2.20236 2.70587 2.45412 2.45412C2.70587 2.20236 3.11377 2.20236 3.36553 2.45412L6.10036 5.18895C6.35211 5.4407 6.35211 5.84861 6.10036 6.10036C5.84861 6.35216 5.44075 6.35216 5.18899 6.1004ZM2.45412 14.3037C2.20236 14.0519 2.20236 13.644 2.45412 13.3923L5.18895 10.6575C5.4407 10.4057 5.84861 10.4057 6.10036 10.6575C6.35211 10.9092 6.35211 11.3171 6.10036 11.5689L3.36553 14.3037C3.11377 14.5554 2.70591 14.5554 2.45412 14.3037ZM10.6574 6.1004C10.4057 5.84865 10.4057 5.44075 10.6574 5.18899L13.3922 2.45416C13.644 2.20241 14.0519 2.20241 14.3037 2.45416C14.5554 2.70591 14.5554 3.11382 14.3037 3.36557L11.5688 6.1004C11.3171 6.35216 10.9092 6.35216 10.6574 6.1004ZM4.51172 9.02344H0.644531C0.288277 9.02344 0 8.73516 0 8.37891C0 8.02265 0.288277 7.73438 0.644531 7.73438H4.51172C4.86797 7.73438 5.15625 8.02265 5.15625 8.37891C5.15625 8.73516 4.86797 9.02344 4.51172 9.02344Z" fill="#A0366B"/>
</g>
<defs>
<clipPath id="clip0_1063_84764">
<rect width="22" height="22" fill="white"/>
</clipPath>
</defs>
</svg>
