<svg width="22" height="22" viewBox="0 0 22 22" fill="none" xmlns="http://www.w3.org/2000/svg">
<path fill-rule="evenodd" clip-rule="evenodd" d="M10.2054 5.22485C8.84378 5.3621 7.63958 5.67177 6.34046 6.21872C4.36966 7.04845 2.33414 8.4314 0.653247 10.0827C0.0168802 10.7079 -0.0583581 10.8426 0.0389662 11.1826C0.130275 11.5014 1.48254 12.761 2.72881 13.6881C4.9362 15.3302 7.223 16.3413 9.53936 16.6993C9.90352 16.7556 10.2878 16.7757 11.0003 16.7757C12.0248 16.7757 12.4922 16.7263 13.413 16.5208C14.2987 16.3231 15.6521 15.8301 16.5626 15.3736C18.191 14.5571 19.9638 13.2765 21.3473 11.9174C21.9837 11.2922 22.0589 11.1574 21.9616 10.8174C21.8703 10.4987 20.518 9.23908 19.2718 8.31194C17.719 7.15682 16.1475 6.32554 14.4965 5.78598C13.3001 5.39497 12.4303 5.24578 11.2151 5.22314C10.7543 5.21454 10.2999 5.21532 10.2054 5.22485ZM11.6151 6.5345C13.3967 6.80086 14.8364 8.05594 15.3328 9.77542C16.0174 12.1467 14.6229 14.6402 12.2249 15.3325C9.85363 16.0171 7.36011 14.6226 6.6678 12.2246C5.85264 9.40103 7.99772 6.52913 10.9491 6.49273C11.1454 6.49028 11.4452 6.5091 11.6151 6.5345ZM10.5921 7.80427C10.1447 7.89235 10.0026 7.93107 9.77762 8.02612C9.00642 8.35195 8.35548 9.00297 8.02849 9.77542C7.85223 10.1918 7.80002 10.4716 7.80002 11C7.80002 11.5285 7.85223 11.8083 8.02849 12.2246C8.42565 13.1629 9.23789 13.8586 10.2698 14.1444C10.3794 14.1747 10.7051 14.1975 11.0218 14.197C11.5332 14.1962 11.6132 14.1849 11.9692 14.0628C12.5268 13.8714 12.859 13.6622 13.2776 13.2384C13.6909 12.8201 13.9441 12.392 14.0898 11.865L14.1773 11.5484L14.039 11.5772C13.313 11.7283 12.7203 11.5611 12.2243 11.0651C11.4702 10.311 11.4619 9.13991 12.2051 8.36888C12.3225 8.24702 12.4041 8.13491 12.3863 8.11975C12.3031 8.04915 11.8924 7.90718 11.5929 7.84552C11.2891 7.783 10.8021 7.76293 10.5921 7.80427Z" fill="#A0366B"/>
</svg>
