<svg width="22" height="22" viewBox="0 0 22 22" fill="none" xmlns="http://www.w3.org/2000/svg">
<g clip-path="url(#clip0_996_87960)">
<path d="M1.375 5.5H6.18784C6.46135 5.5 6.72365 5.60865 6.91705 5.80205C7.11044 5.99544 7.21909 6.25775 7.21909 6.53125V10.3128C7.21909 10.5863 7.11044 10.8487 6.91705 11.042C6.72365 11.2354 6.46135 11.3441 6.18784 11.3441H1.37534C1.23989 11.3441 1.10575 11.3175 0.980596 11.2657C0.855439 11.2139 0.741715 11.1379 0.645918 11.0422C0.550121 10.9464 0.474129 10.8327 0.422282 10.7076C0.370435 10.5824 0.34375 10.4483 0.34375 10.3128V6.53159C0.34375 6.25809 0.452399 5.99579 0.645796 5.80239C0.839193 5.60899 1.1015 5.5 1.375 5.5Z" fill="#A0366B"/>
<path d="M11.3444 4.125C12.2937 4.125 13.0632 3.35549 13.0632 2.40625C13.0632 1.45701 12.2937 0.6875 11.3444 0.6875C10.3952 0.6875 9.62569 1.45701 9.62569 2.40625C9.62569 3.35549 10.3952 4.125 11.3444 4.125Z" fill="#A0366B"/>
<path d="M4.12603 12.3241C4.12609 12.8579 4.33597 13.3703 4.71041 13.7507H10.2987V12.3224C10.2987 12.2316 10.2627 12.1445 10.1985 12.0803C10.1343 12.0161 10.0472 11.98 9.95638 11.98H4.46806C4.37713 11.9805 4.29009 12.017 4.22598 12.0814C4.16188 12.1459 4.12594 12.2332 4.12603 12.3241Z" fill="#A0366B"/>
<path d="M21.2221 17.6547C21.0545 17.0349 20.6786 16.4917 20.1576 16.1164C19.6367 15.7412 19.0024 15.5568 18.3614 15.5942C18.4152 15.3934 18.443 15.1865 18.4439 14.9786C18.4374 14.6489 18.3509 14.3258 18.1919 14.037C18.0329 13.7481 17.8062 13.5022 17.5312 13.3203C16.7932 12.8305 16.2412 11.5851 16.1576 10.2754H16.8162C17.0884 10.2755 17.3495 10.1676 17.5423 9.97543C17.735 9.78326 17.8437 9.52249 17.8444 9.25031V8.56763C17.8437 8.29545 17.735 8.03468 17.5423 7.84251C17.3495 7.65034 17.0884 7.54247 16.8162 7.54256H14.465C12.4774 6.97022 11.8793 6.31091 11.5222 5.91594C11.5149 5.90796 11.5077 5.89994 11.5005 5.89187C11.5362 5.62833 11.4884 5.36023 11.364 5.12518C11.2396 4.89012 11.0448 4.69989 10.8068 4.58116C10.6369 4.50004 10.4509 4.45831 10.2626 4.45908C10.0743 4.45985 9.88865 4.50309 9.71941 4.5856C9.55017 4.6681 9.40173 4.78774 9.28516 4.93559C9.16858 5.08343 9.08687 5.25568 9.04613 5.4395L8.05991 10.1523C8.03089 10.2923 8.03146 10.4368 8.06157 10.5765C8.09169 10.7162 8.15069 10.8481 8.23478 10.9637C8.31887 11.0793 8.42621 11.176 8.54989 11.2477C8.67357 11.3194 8.81087 11.3644 8.95297 11.3798L10.6432 11.5668C10.7303 11.5761 10.8105 11.6185 10.8672 11.6852C10.924 11.752 10.9529 11.8379 10.9481 11.9254L10.682 16.4306C10.4056 16.189 10.209 15.8691 10.1184 15.5133C10.0277 15.1576 10.0472 14.7826 10.1743 14.4382H4.92009C4.36597 15.3563 3.47875 17.0778 3.83762 18.1974C3.90455 18.4082 4.02084 18.6 4.17684 18.7568C4.33283 18.9135 4.52401 19.0308 4.73447 19.0988C4.88906 19.1459 5.05118 19.1634 5.21228 19.1503C5.25163 19.706 5.50015 20.2262 5.90775 20.6059C6.31535 20.9857 6.85175 21.1968 7.40884 21.1968C7.96594 21.1968 8.50234 20.9857 8.90994 20.6059C9.31754 20.2262 9.56606 19.706 9.60541 19.1503H15.4973C15.5545 19.1472 15.6106 19.1327 15.6622 19.1077C15.7139 19.0828 15.76 19.0478 15.7981 19.0049C15.8398 19.2079 15.9076 19.4047 15.9998 19.5903C16.0257 19.6444 16.0652 19.6907 16.1145 19.7247C16.1639 19.7587 16.2212 19.7791 16.2809 19.784C16.3406 19.7889 16.4006 19.778 16.4548 19.7524C16.5089 19.7269 16.5555 19.6876 16.5897 19.6384C16.6299 19.5807 16.6733 19.525 16.719 19.4697C16.7649 19.7663 16.8711 20.0503 17.0309 20.3044C17.1907 20.5584 17.4009 20.7771 17.6484 20.9469C17.8958 21.1167 18.1755 21.2341 18.47 21.2918C18.7645 21.3495 19.0678 21.3463 19.361 21.2825C19.6543 21.2186 19.9314 21.0954 20.1753 20.9205C20.4192 20.7456 20.6247 20.5226 20.7792 20.2652C20.9337 20.0079 21.0339 19.7217 21.0737 19.4242C21.1134 19.1267 21.0919 18.8242 21.0103 18.5353C21.099 18.5257 21.1803 18.4815 21.2366 18.4123C21.2929 18.3432 21.3197 18.2546 21.3111 18.1658C21.298 17.9929 21.2684 17.8217 21.2221 17.6547ZM7.40884 20.514C7.03325 20.514 6.67105 20.3744 6.39252 20.1225C6.11399 19.8705 5.939 19.524 5.9015 19.1503H8.91619C8.87869 19.524 8.7037 19.8705 8.42517 20.1225C8.14664 20.3744 7.78444 20.514 7.40884 20.514ZM14.0731 16.7592H12.7377L13.3282 11.1767C13.3518 10.9506 13.2995 10.7231 13.1797 10.5299C13.0598 10.3368 12.8792 10.189 12.6662 10.1097L10.9818 9.48097C10.9043 9.4522 10.84 9.3963 10.8007 9.32366C10.7613 9.25101 10.7497 9.16656 10.768 9.086L11.0241 7.98084C11.9004 8.67966 12.9584 9.11301 14.0731 9.22969V16.7592ZM19.0871 20.6154C18.859 20.6453 18.6272 20.623 18.4091 20.5502C18.1909 20.4774 17.9922 20.3559 17.8279 20.195C17.6637 20.034 17.5381 19.8378 17.4608 19.6213C17.3835 19.4047 17.3565 19.1733 17.3817 18.9447L17.4862 18.8141C18.2734 18.3261 19.2114 18.1416 20.1248 18.2951L20.206 18.358C20.3308 18.5739 20.4003 18.8173 20.4082 19.0666C20.4162 19.3158 20.3624 19.5632 20.2517 19.7866C20.1409 20.0101 19.9766 20.2027 19.7734 20.3473C19.5703 20.4919 19.3345 20.584 19.0871 20.6154Z" fill="#A0366B"/>
</g>
<defs>
<clipPath id="clip0_996_87960">
<rect width="22" height="22" fill="white"/>
</clipPath>
</defs>
</svg>
