<svg width="29" height="29" viewBox="0 0 29 29" fill="none" xmlns="http://www.w3.org/2000/svg">
<g clip-path="url(#clip0_512_40077)">
<path d="M28.5132 13.2012L24.1181 8.80614V3.72907C24.1181 2.81106 23.3742 2.0671 22.4549 2.0671C21.5376 2.0671 20.7937 2.81106 20.7937 3.72907V5.48178L17.5212 2.20917C15.9033 0.592093 13.0902 0.594962 11.4759 2.2121L0.486545 13.2012C-0.162182 13.8512 -0.162182 14.903 0.486545 15.552C1.13556 16.2019 2.18938 16.2019 2.83817 15.552L13.8265 4.5626C14.1844 4.20651 14.8154 4.20651 15.1715 4.56155L26.1617 15.552C26.3159 15.7065 26.4992 15.829 26.7009 15.9125C26.9026 15.996 27.1189 16.0389 27.3372 16.0386C27.7628 16.0386 28.1884 15.8768 28.5133 15.552C29.1622 14.9031 29.1622 13.8513 28.5132 13.2012Z" fill="#CCCCCC"/>
<path d="M15.0773 7.71744C14.758 7.39834 14.2411 7.39834 13.9227 7.71744L4.25644 17.3808C4.10328 17.5343 4.01727 17.7422 4.01731 17.959V25.0072C4.01731 26.6611 5.35832 28.002 7.01216 28.002H11.7979V20.5904H17.201V28.002H21.9868C23.6406 28.002 24.9816 26.6611 24.9816 25.0072V17.959C24.9816 17.7417 24.8959 17.5334 24.7425 17.3808L15.0773 7.71744Z" fill="#CCCCCC"/>
</g>
<defs>
<clipPath id="clip0_512_40077">
<rect width="29" height="29" fill="white"/>
</clipPath>
</defs>
</svg>
