<svg width="48" height="48" viewBox="0 0 48 48" fill="none" xmlns="http://www.w3.org/2000/svg">
<path fill-rule="evenodd" clip-rule="evenodd" d="M9.88236 0C4.42449 0 0 4.42449 0 9.88235V38.1177C0 43.5756 4.42449 48 9.88236 48H38.1177C43.5756 48 48 43.5756 48 38.1177V9.88235C48 4.42449 43.5756 0 38.1177 0H9.88236ZM39.9 23.7857C39.8634 15.1162 32.7597 8.1 24.0008 8.1C15.2187 8.1 8.1 15.1542 8.1 23.8543C8.1 29.1311 10.7242 33.7992 14.7485 36.6576C14.8537 36.5376 14.9321 36.2217 14.9981 35.9556L15.0024 35.9388L15.0227 35.8284C15.4244 34.1601 15.514 32.5608 15.3194 30.6381C15.2064 29.4918 15.0301 28.8063 14.8641 28.2082C14.6951 27.561 14.5502 27.0001 14.5642 26.1298C14.573 25.3444 14.7353 24.8009 14.9119 24.2227C15.1162 23.563 15.3438 22.819 15.3769 21.5267C15.4631 19.0184 15.7235 18.3943 16.478 17.6663C17.227 16.9417 17.4557 16.6403 17.4557 16.1076C17.4557 15.9908 17.4216 15.8412 17.3816 15.6654C17.2391 15.0391 17.0207 14.08 17.9952 13.0814C18.7981 12.2654 19.5772 11.9683 20.1379 11.9683C20.4549 11.9683 20.7017 12.0633 20.8466 12.2116C21.2461 12.6286 21.1342 13.4367 20.3359 14.5063C19.5358 15.5821 19.5611 16.0488 19.6078 16.2964C19.6584 16.546 19.9011 16.8807 20.3692 17.2442L20.3917 17.2624C20.7445 17.5471 21.1468 17.8719 21.4095 18.336C21.9068 19.2183 22.196 20.0632 22.5908 21.2174L22.6098 21.2728L22.7239 21.6103C23.0836 22.6474 24.0466 23.0107 25.7636 23.0107C27.4694 23.0107 29.2804 21.9031 29.2804 21.0491C29.2804 20.6091 29.1853 20.3696 29.0938 20.1392C29.009 19.9257 28.9273 19.72 28.9273 19.37C28.9273 18.6416 30.0228 16.539 31.6734 16.539C32.514 16.539 32.9526 17.147 32.5455 17.9868C32.4162 18.2565 32.2437 18.5636 32.07 18.8732L32.0697 18.8733L32.0678 18.8767C31.7069 19.5196 31.3401 20.1729 31.3401 20.5257C31.3401 21.4947 32.7888 20.7461 33.6999 20.0024C34.626 19.2583 34.8294 19.0506 35.4642 17.9386C35.8509 17.2515 36.4023 17.1204 36.7695 17.3001C37.1751 17.5023 37.4316 18.0987 37.065 18.9528C36.7801 19.6081 36.0112 20.4402 35.1952 21.3232L35.1942 21.3243L35.1705 21.3498C34.0668 22.5364 32.8194 23.8883 32.8194 24.7537C32.8194 29.1631 35.3193 33.0105 35.6091 33.4317C35.8893 33.8508 36.0438 33.99 36.1287 34.0326C38.4657 31.3029 39.8841 27.7766 39.9 23.922V23.7857ZM22.956 25.482C23.3664 25.135 23.9494 25.02 24.741 25.1447C27.7442 25.6083 28.0067 27.4578 28.2388 29.0937L28.2662 29.2843L28.4047 30.2067L28.4129 30.2595L28.413 30.2603C28.6871 32.0411 29.2415 35.6424 29.2415 37.5306C29.2415 38.0073 29.1995 38.3733 29.1229 38.5743C28.9952 38.8842 28.6231 39.1815 28.1093 39.4293C26.8663 39.7353 25.5669 39.9009 24.2286 39.9009C24.127 39.9009 24.0266 39.8973 23.9264 39.8937C23.8867 39.8922 23.8471 39.891 23.8075 39.8898C23.2666 39.7362 22.86 39.4797 22.6448 39.129C21.9699 38.0304 21.9536 35.5308 21.9413 32.64L21.936 31.8144C21.9148 28.8984 21.8967 26.3841 22.956 25.482ZM18.5377 31.4931C19.1545 31.4583 19.551 34.4919 19.6307 36.792C19.6866 38.3937 19.5184 39.0522 19.2499 39.2889C18.9459 39.1875 18.6472 39.0777 18.3529 38.9583C18.1565 38.6016 18.0064 38.0403 17.911 37.305C17.62 34.9947 17.8728 31.5339 18.5377 31.4931ZM31.4382 31.6146C32.4078 31.1463 34.1454 35.2929 34.0014 36.0252C33.963 36.2361 33.9087 36.3987 33.8418 36.5361C33.3147 36.9594 32.7603 37.3476 32.1804 37.6971C31.9956 37.7283 31.8315 37.7067 31.7514 37.5711C30.9828 36.2205 30.6942 31.9836 31.4382 31.6146Z" fill="#F14635"/>
</svg>
