<svg width="186" height="46" viewBox="0 0 186 46" fill="none" xmlns="http://www.w3.org/2000/svg">
<path d="M44.4264 11.7962C44.0635 11.7962 43.7215 11.9491 43.4651 12.1909V17.8038C43.7641 18.067 44.1488 18.1981 44.6406 18.1981C45.9226 18.1981 46.4353 16.8826 46.4353 15.2166C46.4353 13.0456 45.8368 11.7962 44.4264 11.7962ZM39.5545 12.1909C39.2982 11.9491 38.9562 11.7962 38.5928 11.7962C37.1828 11.7962 36.584 13.0456 36.584 15.2166C36.584 16.8826 37.097 18.1981 38.3791 18.1981C38.8709 18.1981 39.2551 18.067 39.5545 17.8038V12.1909ZM44.5975 21.3335C44.2772 21.3335 43.8925 21.2461 43.4651 21.0926V23H41.435C40.6016 23 39.7469 22.342 39.5759 21.1145C39.1698 21.2461 38.7851 21.3335 38.4222 21.3335C34.3619 21.3335 32.6738 18.7905 32.6738 14.8437C32.6738 11.1164 34.9177 8.61659 38.1233 8.61659C38.6141 8.61659 39.1059 8.70447 39.5545 8.85792V7.16956H41.67C42.4181 7.16956 43.3367 7.8052 43.4438 8.88023C43.9138 8.70447 44.4051 8.61659 44.8969 8.61659C48.1025 8.61659 50.3458 11.1164 50.3458 14.8437C50.3458 18.7905 48.6578 21.3335 44.5975 21.3335Z" fill="#EA5957"/>
<path d="M64.6321 22.6489C63.5211 22.6489 62.3244 21.8379 62.3244 20.3035V13.3306C62.3244 13.3306 62.068 13.9448 61.598 14.7999L59.0979 19.4479C57.7728 21.9035 56.512 22.6489 54.8453 22.6489H53.0293V7.52057H55.0808C56.1491 7.52057 57.0891 8.33151 57.0891 9.47165V16.1154L58.0296 14.2736L59.8242 10.6341C60.8287 8.59469 62.1538 7.52057 64.3123 7.52057H66.3847V22.6489H64.6321Z" fill="#EA5957"/>
<path d="M79.051 11.0726H76.9573V22.6489H75.1835C73.9654 22.6489 72.897 22.0788 72.897 20.4783V11.0726H68.6875V9.53767C68.6875 8.61654 69.4778 7.52057 70.974 7.52057H81.3166V9.05503C81.3166 9.99801 80.2908 11.0726 79.051 11.0726Z" fill="#EA5957"/>
<path d="M89.7171 10.5463C87.7088 10.5463 86.6404 12.3221 86.6404 14.8655C86.6404 18.067 87.8367 19.6019 90.0592 19.6019C91.897 19.6019 93.1364 18.0228 93.1364 15.2385C93.1364 11.9277 91.9823 10.5463 89.7171 10.5463ZM89.6744 23C85.6573 23 82.5801 20.018 82.5801 15.2822C82.5801 10.3928 85.3792 7.16956 90.1231 7.16956C93.7348 7.16956 97.1962 9.93249 97.1962 14.8655C97.1962 19.8864 94.4606 23 89.6744 23Z" fill="#EA5957"/>
<path d="M116.776 22.6489C115.365 22.6489 114.339 21.8598 114.339 20.2812C114.339 18.9216 114.211 15.0408 113.976 12.8047L111.946 19.1629C111.647 20.0836 111.027 21.7064 110.471 22.6489H109.339C107.95 22.6489 106.86 21.5748 105.941 18.5054L105.194 15.9838C104.83 14.7339 104.381 13.3966 104.147 12.7605C103.89 15.3477 103.697 20.1496 103.697 22.6489H102.18C100.94 22.6489 99.8086 21.7719 99.8086 20.2812C99.8086 15.9401 100.385 10.6997 101.09 7.52057H102.501C104.851 7.52057 106.048 8.66072 106.582 9.99802L107.736 12.9363C108.228 14.2075 108.847 15.9401 109.168 17.2113C109.489 16.0935 109.937 14.7558 110.386 13.6598L111.796 10.1952C112.331 8.90204 113.036 7.98091 113.57 7.52057H114.318C116.455 7.52057 117.481 8.72628 117.758 10.8968C118.143 13.8569 118.506 18.5054 118.506 22.6489H116.776Z" fill="#EA5957"/>
<path d="M133.432 22.6489C132.32 22.6489 131.124 21.8379 131.124 20.3035V13.3306C131.124 13.3306 130.867 13.9448 130.397 14.7999L127.897 19.4479C126.572 21.9035 125.311 22.6489 123.645 22.6489H121.828V7.52057H123.88C124.948 7.52057 125.888 8.33151 125.888 9.47165V16.1154L126.828 14.2736L128.624 10.6341C129.628 8.59469 130.953 7.52057 133.111 7.52057H135.184V22.6489H133.432Z" fill="#EA5957"/>
<path d="M149.09 22.6489C147.701 22.6489 146.889 21.6185 146.718 20.7197C146.355 18.7681 145.372 15.6769 144.239 13.1994C143.042 15.6987 141.824 19.6018 141.354 22.6489H139.303C138.298 22.6489 137.486 21.9914 137.486 20.9168C137.486 20.3472 137.85 19.2289 138.384 17.5624C139.345 14.5804 141.717 9.47166 143.192 7.52057H144.154C145.136 7.52057 145.671 7.89303 146.291 8.85787C148.641 12.5633 150.607 17.5843 151.355 22.6489H149.09Z" fill="#EA5957"/>
<path d="M164.732 22.6489C163.343 22.6489 162.531 21.6185 162.36 20.7197C161.997 18.7681 161.014 15.6769 159.881 13.1994C158.684 15.6987 157.466 19.6018 156.996 22.6489H154.945C153.94 22.6489 153.129 21.9914 153.129 20.9168C153.129 20.3472 153.492 19.2289 154.026 17.5624C154.988 14.5804 157.36 9.47166 158.834 7.52057H159.796C160.779 7.52057 161.313 7.89303 161.933 8.85787C164.283 12.5633 166.249 17.5843 166.997 22.6489H164.732Z" fill="#EA5957"/>
<path d="M183.871 22.6489C182.76 22.6489 181.564 21.8379 181.564 20.3035V7.52057H183.551C184.512 7.52057 185.623 8.24363 185.623 9.47165V22.6489H183.871ZM174.662 15.8303C174.084 15.8303 173.571 15.874 173.123 16.0275V19.4042C173.315 19.4479 173.743 19.5139 173.935 19.5139H174.747C175.794 19.5139 176.478 19.1192 176.478 17.5405C176.478 16.4441 175.943 15.8303 174.662 15.8303ZM175.11 22.8684H173.828C170.858 22.8684 169.062 21.5311 169.062 18.9434V7.52057H171.157C172.225 7.52057 173.123 8.33151 173.123 9.47165V12.7605C173.657 12.5852 174.32 12.5415 175.046 12.5415C178.102 12.5415 180.537 14.6683 180.537 17.9572C180.537 21.1144 178.166 22.8684 175.11 22.8684Z" fill="#EA5957"/>
<path d="M39.224 32.4304C39.0525 32.4304 38.8912 32.4818 38.7498 32.5752V35.8549C38.8912 35.9373 39.0623 35.9792 39.2644 35.9792C39.9902 35.9792 40.5552 35.3581 40.5552 34.2098C40.5552 33.1338 40.1112 32.4304 39.224 32.4304ZM37.3988 32.5752C37.2574 32.4818 37.0863 32.4304 36.9148 32.4304C36.0277 32.4304 35.5939 33.1338 35.5939 34.2098C35.5939 35.3581 36.1482 35.9792 36.8847 35.9792C37.0863 35.9792 37.2574 35.9373 37.3988 35.8549V32.5752ZM39.4256 37.1271C39.2138 37.1271 38.9417 37.0861 38.7498 37.0137V37.9968H38.2358C37.6611 37.9968 37.4089 37.4895 37.4089 37.0242C37.2171 37.0861 36.9352 37.1271 36.7234 37.1271C35.2407 37.1271 34.1621 36.0307 34.1621 34.2098C34.1621 32.5542 35.1401 31.2711 36.7132 31.2711C36.9251 31.2711 37.2073 31.313 37.3988 31.3854V30.6609H37.9934C38.4068 30.6609 38.7401 30.982 38.7401 31.3854C38.9315 31.313 39.224 31.2711 39.4358 31.2711C41.0085 31.2711 41.9768 32.5542 41.9768 34.2098C41.9768 36.0307 40.9079 37.1271 39.4256 37.1271Z" fill="#EA5957"/>
<path d="M48.6934 31.8716C48.3305 33.1752 47.4831 34.7479 47.0901 35.441C45.7691 37.7376 45.4164 37.9553 44.4884 37.9553C44.0551 37.9553 43.5508 37.6133 43.5508 37.0342V36.7855L44.2164 36.7546C44.7104 36.7341 45.0331 36.2892 45.2954 35.9168C44.3976 34.6132 43.2685 32.4403 42.875 30.7852H43.6416C44.1255 30.7852 44.418 31.0958 44.5288 31.4782C44.8008 32.4508 45.4563 33.7749 46.0111 34.7065C46.5756 33.6715 47.2917 32.0264 47.5438 30.7852H48.2095C48.5826 30.7852 48.8041 30.951 48.8041 31.3129C48.8041 31.4887 48.7434 31.7063 48.6934 31.8716Z" fill="#EA5957"/>
<path d="M55.0961 37.872C54.6924 37.872 54.2892 37.5409 54.2892 36.9203V34.8308H51.4961V37.872H50.9719C50.5079 37.872 50.1348 37.5409 50.1348 36.9203V30.7852H50.8101C51.2036 30.7852 51.4961 31.1263 51.4961 31.5301V33.6406H54.2892V30.7852H54.9144C55.2671 30.7852 55.6505 31.0748 55.6505 31.5301V37.872H55.0961Z" fill="#EA5957"/>
<path d="M62.0147 37.9034C61.6814 37.9034 61.2883 37.7272 61.0469 37.4481C60.1996 36.4445 59.5136 35.42 58.8281 34.2922V37.872H58.3743C57.7087 37.872 57.4668 37.3961 57.4668 36.9103V30.7852H57.9108C58.5759 30.7852 58.8281 31.2405 58.8281 31.7369V33.9507C59.4431 33.0195 60.0582 32.0474 60.8147 31.2196C61.1776 30.8162 61.3287 30.7852 61.8631 30.7852H62.811V30.8371C62.2766 31.3958 60.9051 33.0819 60.2093 34.0959C60.855 35.058 61.4803 36.134 62.3572 36.8994C62.5588 37.0651 62.7002 37.138 62.9018 37.1894C62.7809 37.6962 62.569 37.9034 62.0147 37.9034Z" fill="#EA5957"/>
<path d="M70.2037 39.6209C69.5682 39.6209 69.286 39.2584 69.286 38.7412V37.872H66.765C65.0004 37.872 64.1133 36.8894 64.1133 34.9442V30.7852H64.7784C65.1218 30.7852 65.4741 31.0543 65.4741 31.4682V35.12C65.4741 36.2478 65.8574 36.6307 67.0371 36.6307H68.1666V30.7852H68.8118C69.1446 30.7852 69.5279 31.0748 69.5279 31.4887V36.6307C70.1128 36.6307 70.5768 36.7236 70.5768 37.479V39.6209H70.2037Z" fill="#EA5957"/>
<path d="M77.0592 37.872C76.6559 37.872 76.2527 37.5409 76.2527 36.9203V32.5442C76.1113 32.6885 75.9301 32.999 75.6774 33.5063L74.3467 36.1759C73.6709 37.5309 73.0962 37.872 72.4005 37.872H71.8359V30.7852H72.5113C72.9048 30.7852 73.1968 31.1263 73.1968 31.5301V35.8753C73.3688 35.6686 73.6812 34.9756 73.8225 34.6856L75.0022 32.2232C75.4355 31.323 76.0205 30.7852 76.9178 30.7852H77.614V37.872H77.0592Z" fill="#EA5957"/>
<path d="M82.3737 31.9131C81.3554 31.9131 80.6193 32.7719 80.6193 34.2198C80.6193 35.9273 81.2242 36.7651 82.4844 36.7651C83.5533 36.7651 84.2388 35.9792 84.2388 34.417C84.2388 32.7509 83.5431 31.9131 82.3737 31.9131ZM82.3537 37.9968C80.6091 37.9968 79.1973 36.5584 79.1973 34.4375C79.1973 32.2337 80.407 30.6609 82.5048 30.6609C84.1786 30.6609 85.6608 31.975 85.6608 34.2198C85.6608 36.3721 84.4608 37.9968 82.3537 37.9968Z" fill="#EA5957"/>
<path d="M92.207 37.872C91.8037 37.872 91.4005 37.5409 91.4005 36.9203V34.8308H88.6074V37.872H88.0827C87.6187 37.872 87.2461 37.5409 87.2461 36.9203V30.7852H87.9219C88.3149 30.7852 88.6074 31.1263 88.6074 31.5301V33.6406H91.4005V30.7852H92.0252C92.3784 30.7852 92.7618 31.0748 92.7618 31.5301V37.872H92.207Z" fill="#EA5957"/>
<path d="M97.0269 32.0888C96.6237 32.8233 96.1898 33.9507 95.9581 34.9337H98.0962C97.864 33.9406 97.3898 32.7509 97.0269 32.0888ZM99.528 37.872C98.9528 37.872 98.6505 37.5309 98.6 37.1894C98.5393 36.7236 98.4791 36.3616 98.4086 36.0616H95.6559C95.5145 36.6617 95.3935 37.2718 95.2924 37.872H94.7581C94.3043 37.872 94.123 37.6238 94.123 37.1894C94.123 36.1654 95.4135 31.9955 96.4726 30.7852H97.0371C97.5919 30.7852 97.9645 31.0958 98.1564 31.4373C98.7817 32.5856 99.82 35.6377 100.093 37.872H99.528Z" fill="#EA5957"/>
<path d="M106.071 37.872C105.557 37.872 105.265 37.5204 105.194 37.0961C104.972 35.7925 104.599 34.0335 103.783 32.2541C103.047 33.8887 102.411 36.0825 102.149 37.872H101.423C101.09 37.872 100.828 37.6552 100.828 37.2618C100.828 36.8689 101.251 35.2443 101.665 34.1059C102.058 33.0304 102.522 31.8507 103.228 30.7852H103.51C103.944 30.7852 104.488 30.94 104.721 31.3544C105.749 33.2062 106.495 35.6167 106.808 37.872H106.071Z" fill="#EA5957"/>
<path d="M110.51 34.4579C110.097 34.4579 109.754 34.5098 109.452 34.6551V36.1654C109.452 36.4964 109.703 36.7136 110.076 36.7136H110.52C111.266 36.7136 111.669 36.3926 111.669 35.5443C111.669 34.8513 111.296 34.4579 110.51 34.4579ZM110.651 37.9444H110.076C108.745 37.9444 108.09 37.3242 108.09 36.2478V30.7852H108.796C109.139 30.7852 109.452 31.0543 109.452 31.4682V33.5268C109.713 33.3924 110.157 33.2577 110.651 33.2577C112.023 33.2577 113.102 34.1269 113.102 35.6481C113.102 37.0756 112.053 37.9444 110.651 37.9444Z" fill="#EA5957"/>
<path d="M119.475 37.872C119.071 37.872 118.668 37.5409 118.668 36.9203V34.8308H115.875V37.872H115.35C114.886 37.872 114.514 37.5409 114.514 36.9203V30.7852H115.189C115.583 30.7852 115.875 31.1263 115.875 31.5301V33.6406H118.668V30.7852H119.293C119.646 30.7852 120.029 31.0748 120.029 31.5301V37.872H119.475Z" fill="#EA5957"/>
<path d="M124.789 31.9131C123.771 31.9131 123.035 32.7719 123.035 34.2198C123.035 35.9273 123.64 36.7651 124.9 36.7651C125.97 36.7651 126.655 35.9792 126.655 34.417C126.655 32.7509 125.96 31.9131 124.789 31.9131ZM124.769 37.9968C123.025 37.9968 121.613 36.5584 121.613 34.4375C121.613 32.2337 122.824 30.6609 124.921 30.6609C126.595 30.6609 128.077 31.975 128.077 34.2198C128.077 36.3721 126.877 37.9968 124.769 37.9968Z" fill="#EA5957"/>
<path d="M134.419 37.0446C134.409 37.6133 134.127 37.9239 132.916 37.9239H132.18C130.497 37.9239 129.609 36.9722 129.609 35.1618V33.8478C129.609 33.1752 129.66 32.4194 129.74 31.8507C129.851 31.0024 130.234 30.7852 130.799 30.7852H134.409V31.261C134.409 31.7578 134.117 32.006 133.481 32.006H131.112C131.041 32.5232 131.011 33.2162 131.011 33.6615H133.673V34.1683C133.673 34.6337 133.391 34.8203 132.836 34.8203H131.011V35.2342C131.011 36.465 131.404 36.7031 132.473 36.7031H132.916C133.421 36.7031 133.935 36.6617 134.429 36.5479L134.419 37.0446Z" fill="#EA5957"/>
<path d="M143.464 37.872C143.06 37.872 142.657 37.541 142.657 36.9204V33.4234C142.657 32.1922 142.264 31.9541 141.195 31.9541H140.923C140.651 31.9541 140.156 31.9955 139.915 32.0474V37.872H139.36C138.956 37.872 138.553 37.541 138.553 36.9204V31.0334C138.997 30.8781 140.096 30.7333 140.741 30.7333H141.447C143.131 30.7333 144.019 31.5821 144.019 33.3925V37.872H143.464Z" fill="#EA5957"/>
<path d="M151.057 37.872C150.654 37.872 150.25 37.5409 150.25 36.9203V32.5442C150.11 32.6885 149.928 32.999 149.676 33.5063L148.345 36.1759C147.669 37.5309 147.094 37.872 146.399 37.872H145.834V30.7852H146.51C146.903 30.7852 147.195 31.1263 147.195 31.5301V35.8753C147.367 35.6686 147.68 34.9756 147.821 34.6856L149 32.2232C149.434 31.323 150.019 30.7852 150.916 30.7852H151.612V37.872H151.057Z" fill="#EA5957"/>
<path d="M157.471 32.0264H156.2V37.872H155.646C155.162 37.872 154.809 37.5514 154.809 36.9203V32.0264H152.822V31.5611C152.822 31.2196 153.095 30.7852 153.659 30.7852H158.298V31.2301C158.298 31.5716 157.924 32.0264 157.471 32.0264Z" fill="#EA5957"/>
<path d="M161.978 32.0888C161.575 32.8233 161.141 33.9507 160.91 34.9337H163.047C162.815 33.9406 162.341 32.7509 161.978 32.0888ZM164.479 37.872C163.904 37.872 163.602 37.5309 163.551 37.1894C163.491 36.7236 163.43 36.3616 163.36 36.0616H160.607C160.466 36.6617 160.345 37.2718 160.244 37.872H159.709C159.255 37.872 159.074 37.6238 159.074 37.1894C159.074 36.1654 160.365 31.9955 161.424 30.7852H161.988C162.543 30.7852 162.916 31.0958 163.108 31.4373C163.733 32.5856 164.772 35.6377 165.044 37.872H164.479Z" fill="#EA5957"/>
<path d="M171.266 37.872C170.862 37.872 170.459 37.5409 170.459 36.9203V34.8308H167.666V37.872H167.141C166.677 37.872 166.305 37.5409 166.305 36.9203V30.7852H166.98C167.374 30.7852 167.666 31.1263 167.666 31.5301V33.6406H170.459V30.7852H171.084C171.437 30.7852 171.82 31.0748 171.82 31.5301V37.872H171.266Z" fill="#EA5957"/>
<path d="M178.86 37.872C178.457 37.872 178.053 37.5409 178.053 36.9203V32.5442C177.913 32.6885 177.731 32.999 177.479 33.5063L176.148 36.1759C175.472 37.5309 174.897 37.872 174.202 37.872H173.637V30.7852H174.313C174.706 30.7852 174.998 31.1263 174.998 31.5301V35.8753C175.17 35.6686 175.482 34.9756 175.623 34.6856L176.803 32.2232C177.237 31.323 177.822 30.7852 178.719 30.7852H179.415V37.872H178.86Z" fill="#EA5957"/>
<path d="M185.989 37.0446C185.979 37.6133 185.697 37.9239 184.486 37.9239H183.751C182.066 37.9239 181.18 36.9722 181.18 35.1618V33.8478C181.18 33.1752 181.23 32.4194 181.31 31.8507C181.422 31.0024 181.804 30.7852 182.369 30.7852H185.979V31.261C185.979 31.7578 185.687 32.006 185.051 32.006H182.682C182.611 32.5232 182.581 33.2162 182.581 33.6615H185.243V34.1683C185.243 34.6337 184.96 34.8203 184.406 34.8203H182.581V35.2342C182.581 36.465 182.974 36.7031 184.043 36.7031H184.486C184.991 36.7031 185.506 36.6617 185.999 36.5479L185.989 37.0446Z" fill="#EA5957"/>
<path fill-rule="evenodd" clip-rule="evenodd" d="M15.437 5.99304L11.2623 10.2017C11.1742 10.2909 11.0314 10.2914 10.9429 10.2017L6.76812 5.99304C6.66661 5.89105 6.5707 5.78405 6.48124 5.67295C5.94775 5.01272 5.57045 4.15215 5.48285 3.29203C5.39247 2.41415 5.60241 1.53537 6.24854 0.860112C6.31806 0.787259 6.39084 0.718959 6.46639 0.654758C6.79316 0.377007 7.15887 0.197608 7.53987 0.0978909C8.20593 -0.076045 8.91742 -0.00501245 9.53991 0.207171C10.1647 0.41981 10.7052 0.777698 11.025 1.17383C11.0528 1.20753 11.0783 1.24213 11.1028 1.27674C11.1269 1.24213 11.1529 1.20753 11.1802 1.17383C11.5001 0.777698 12.0405 0.41981 12.6658 0.207171C13.2882 -0.00501245 13.9992 -0.076045 14.6653 0.0978909C15.0463 0.197608 15.412 0.377007 15.7393 0.654758C15.8144 0.718959 15.8871 0.787259 15.9566 0.860112C16.6032 1.53537 16.8127 2.41415 16.7228 3.29203C16.6347 4.15215 16.2575 5.01272 15.724 5.67295C15.6345 5.78405 15.5385 5.89105 15.437 5.99304Z" fill="#EA5957"/>
<path fill-rule="evenodd" clip-rule="evenodd" d="M20.0766 23.0592C19.2275 25.5371 17.6553 27.7791 15.4639 29.4657C15.4597 29.4693 15.4555 29.4725 15.4514 29.4757L11.6979 32.1471C11.6645 32.1753 11.6219 32.1922 11.575 32.1922C11.4675 32.1922 11.3809 32.1029 11.3809 31.9927V25.8085C11.3809 24.3478 11.7461 22.9599 12.3917 21.7383C13.0578 20.4779 14.0237 19.3947 15.1959 18.5901V18.5906L20.0358 15.1087C20.0548 15.0932 20.0776 15.0814 20.1031 15.0741C20.2064 15.0445 20.3131 15.1069 20.3413 15.2125C21.0523 17.8493 20.929 20.5726 20.0766 23.0592Z" fill="url(#paint0_linear_4730_4728)"/>
<path fill-rule="evenodd" clip-rule="evenodd" d="M2.25541 23.0592C3.10455 25.5371 4.67673 27.7791 6.86818 29.4657C6.87235 29.4693 6.8765 29.4725 6.88067 29.4757L10.6341 32.1471C10.6675 32.1753 10.7102 32.1922 10.757 32.1922C10.8645 32.1922 10.9512 32.1029 10.9512 31.9927V25.8085C10.9512 24.3478 10.586 22.9599 9.94029 21.7383C9.27424 20.4779 8.30829 19.3947 7.13609 18.5901V18.5906L2.29619 15.1087C2.27719 15.0932 2.25447 15.0814 2.22898 15.0741C2.12561 15.0445 2.01898 15.1069 1.99071 15.2125C1.27969 17.8493 1.40303 20.5726 2.25541 23.0592Z" fill="url(#paint1_linear_4730_4728)"/>
<path fill-rule="evenodd" clip-rule="evenodd" d="M18.0385 13.4317C17.3892 15.3264 16.1864 17.0407 14.5108 18.3306C14.5076 18.3334 14.5044 18.3356 14.5011 18.3379L11.6311 20.3814C11.6056 20.4028 11.5727 20.4156 11.537 20.4156C11.455 20.4156 11.3887 20.3473 11.3887 20.2635V15.5335C11.3887 14.4166 11.6677 13.3552 12.1613 12.4214C12.6712 11.4574 13.4095 10.6292 14.3059 10.0145L18.007 7.35171C18.0219 7.33987 18.039 7.33031 18.0585 7.32485C18.1373 7.30299 18.2189 7.35035 18.2406 7.43094C18.7843 9.44759 18.6898 11.5298 18.0385 13.4317Z" fill="url(#paint2_linear_4730_4728)"/>
<path fill-rule="evenodd" clip-rule="evenodd" d="M4.29349 13.4317C4.94285 15.3264 6.14562 17.0407 7.82118 18.3306C7.82443 18.3334 7.82767 18.3356 7.83091 18.3379L10.701 20.3814C10.7265 20.4028 10.7593 20.4156 10.795 20.4156C10.8771 20.4156 10.9434 20.3473 10.9434 20.2635V15.5335C10.9434 14.4166 10.6643 13.3552 10.1707 12.4214C9.66085 11.4574 8.92251 10.6292 8.02609 10.0145L4.32499 7.35171C4.31016 7.33987 4.29299 7.33031 4.27353 7.32485C4.19473 7.30299 4.11317 7.35035 4.09138 7.43094C3.54769 9.44759 3.64226 11.5298 4.29349 13.4317Z" fill="url(#paint3_linear_4730_4728)"/>
<path fill-rule="evenodd" clip-rule="evenodd" d="M21.487 35.394C20.5007 38.2717 18.6745 40.8757 16.1299 42.8336C16.1252 42.8377 16.1201 42.8414 16.115 42.845L11.7572 45.9476C11.7178 45.9804 11.6682 46 11.614 46C11.4893 46 11.3887 45.8966 11.3887 45.7682V38.5868C11.3887 36.8902 11.8123 35.2783 12.5623 33.86C13.3359 32.3966 14.4575 31.1389 15.8188 30.2046L15.8193 30.2051L21.4388 26.1617C21.4615 26.1435 21.4879 26.1299 21.5171 26.1212C21.6367 26.0875 21.761 26.1595 21.7939 26.2824C22.6198 29.344 22.4761 32.5068 21.487 35.394Z" fill="url(#paint4_linear_4730_4728)"/>
<path fill-rule="evenodd" clip-rule="evenodd" d="M0.845002 35.394C1.83134 38.2717 3.65755 40.8757 6.20218 42.8336C6.20681 42.8377 6.21193 42.8414 6.21703 42.845L10.5749 45.9476C10.6143 45.9804 10.6639 46 10.7181 46C10.8428 46 10.9434 45.8966 10.9434 45.7682V38.5868C10.9434 36.8902 10.5197 35.2783 9.76975 33.86C8.99617 32.3966 7.8745 31.1389 6.51319 30.2046L6.51274 30.2051L0.893208 26.1617C0.870497 26.1435 0.844102 26.1299 0.814901 26.1212C0.695317 26.0875 0.571066 26.1595 0.538157 26.2824C-0.287807 29.344 -0.144114 32.5068 0.845002 35.394Z" fill="url(#paint5_linear_4730_4728)"/>
<defs>
<linearGradient id="paint0_linear_4730_4728" x1="15.9714" y1="15.0891" x2="15.9714" y2="32.1922" gradientUnits="userSpaceOnUse">
<stop stop-color="#ED6F62"/>
<stop offset="1" stop-color="#F5AA7F"/>
</linearGradient>
<linearGradient id="paint1_linear_4730_4728" x1="6.36063" y1="15.0891" x2="6.36063" y2="32.1922" gradientUnits="userSpaceOnUse">
<stop stop-color="#ED6F62"/>
<stop offset="1" stop-color="#F5AA7F"/>
</linearGradient>
<linearGradient id="paint2_linear_4730_4728" x1="14.8992" y1="7.33623" x2="14.8992" y2="20.4156" gradientUnits="userSpaceOnUse">
<stop stop-color="#EB635C"/>
<stop offset="1" stop-color="#F0846C"/>
</linearGradient>
<linearGradient id="paint3_linear_4730_4728" x1="7.43278" y1="7.33623" x2="7.43278" y2="20.4156" gradientUnits="userSpaceOnUse">
<stop stop-color="#EB635C"/>
<stop offset="1" stop-color="#F0846C"/>
</linearGradient>
<linearGradient id="paint4_linear_4730_4728" x1="16.7194" y1="26.1385" x2="16.7194" y2="46" gradientUnits="userSpaceOnUse">
<stop stop-color="#F39B79"/>
<stop offset="0.670588" stop-color="#FAC68C"/>
<stop offset="1" stop-color="#FAC68C"/>
</linearGradient>
<linearGradient id="paint5_linear_4730_4728" x1="5.6126" y1="26.1385" x2="5.6126" y2="46" gradientUnits="userSpaceOnUse">
<stop stop-color="#F39B79"/>
<stop offset="0.670588" stop-color="#FAC68C"/>
<stop offset="1" stop-color="#FAC68C"/>
</linearGradient>
</defs>
</svg>
