<svg width="49" height="48" viewBox="0 0 49 48" fill="none" xmlns="http://www.w3.org/2000/svg">
<g clip-path="url(#clip0_950_83879)">
<mask id="mask0_950_83879" style="mask-type:luminance" maskUnits="userSpaceOnUse" x="0" y="0" width="49" height="48">
<path d="M38.736 48H9.93534C4.63173 48 0.333984 43.7022 0.333984 38.402V9.60135C0.333984 4.29775 4.63173 0 9.93534 0H38.736C44.0396 0 48.3374 4.29775 48.3374 9.60135V38.402C48.334 43.7022 44.0362 48 38.736 48Z" fill="white"/>
</mask>
<g mask="url(#mask0_950_83879)">
<path d="M48.334 0H0.333984V48H48.334V0Z" fill="#005BFF"/>
</g>
<mask id="mask1_950_83879" style="mask-type:luminance" maskUnits="userSpaceOnUse" x="0" y="0" width="49" height="48">
<path d="M38.736 48H9.93534C4.63173 48 0.333984 43.7022 0.333984 38.402V9.60135C0.333984 4.29775 4.63173 0 9.93534 0H38.736C44.0396 0 48.3374 4.29775 48.3374 9.60135V38.402C48.334 43.7022 44.0362 48 38.736 48Z" fill="white"/>
</mask>
<g mask="url(#mask1_950_83879)">
<path d="M43.2547 -8.521C40.569 -3.57638 38.774 -1.01264 33.5653 4.82946C32.7694 5.96401 31.8143 6.90891 30.7915 7.803C26.0298 11.9653 21.2782 16.1648 16.5029 20.3068C15.0907 21.5328 13.6073 22.6504 12.1442 23.812C11.2739 24.5029 10.2307 24.8822 9.21134 25.2311C5.80769 26.3927 2.42435 27.49 -0.969144 28.6787C-2.49317 29.2139 -3.99349 29.8709 -5.49042 30.4906C-6.53691 30.9241 -7.34973 31.7234 -8.13545 32.5396C-10.0286 34.5141 -11.048 36.3463 -12.6838 39.4993C-12.6872 39.3909 -13.1309 29.6643 -13.1309 29.6643C-11.0785 27.026 -8.59604 24.9263 -6.13389 22.9891C-5.05014 22.1356 -3.88172 21.4515 -2.72008 20.72C-0.667726 19.4296 1.18142 17.8074 2.93236 16.0971C4.59524 14.4782 5.9567 12.5817 7.29107 10.6614C9.40438 7.61673 11.5516 4.589 13.8342 1.67981C14.9789 0.220131 16.3167 -1.0465 17.6477 -2.30636C19.3546 -3.92183 22.9682 -7.60319 22.9682 -7.60319C22.9817 -7.60319 29.254 -7.88768 29.254 -7.88768C29.0677 -7.67093 28.878 -7.34242 28.8069 -7.22388C28.0483 -5.93015 27.2524 -4.67368 26.548 -3.35286C26.1009 -2.51295 25.8097 -1.55112 25.41 -0.680737C24.6108 1.04649 23.6489 2.64164 22.2299 3.8744C21.7625 4.28081 21.2139 4.6398 20.6686 4.91074C19.5341 5.47294 18.5384 6.2214 17.5969 7.07147C16.1711 8.35842 14.8909 9.79778 13.6175 11.2507C11.6125 13.5333 9.71596 15.9007 7.90068 18.3526C7.72457 18.5897 7.52475 18.8132 7.36896 19.0672C7.29445 19.1892 7.26736 19.3483 7.21317 19.4872L7.26059 19.5752C7.44347 19.5109 7.65345 19.4669 7.81601 19.3653C8.42562 18.9927 9.06232 18.6574 9.63129 18.2273C11.7852 16.5983 13.9494 14.949 16.0525 13.2488C17.1363 12.3717 18.0879 11.3252 19.1378 10.3972C19.7847 9.82826 20.5196 9.36766 21.1936 8.83256C22.301 7.9554 23.3983 7.09518 24.4617 6.15705C26.0806 4.73463 27.6961 3.26479 29.2573 1.76109C32.5086 -1.38179 31.8685 -4.85318 34.9911 -8.14846L43.2547 -8.521Z" fill="#F91155"/>
<path d="M53.6441 41.1249C53.1429 41.6396 52.8889 42.0427 52.3572 42.5236C51.927 42.913 51.3987 43.2178 50.9415 43.5802C49.2583 44.9146 47.7004 46.5673 45.8343 47.607C44.4255 48.3928 42.959 48.9448 41.3774 49.1277C41.0963 49.1615 40.7881 49.1243 40.5104 49.0566C40.148 48.9685 40.0092 48.64 40.0498 48.2539C40.1142 47.6578 40.4156 47.2074 40.778 46.7773C41.1742 46.3065 41.5738 45.7748 42.0581 45.4226C43.1859 44.6098 44.0665 43.5836 44.8352 42.422C45.3873 41.5854 45.8885 40.7388 46.4507 39.909C47.1281 38.9032 48.0154 38.1039 48.8688 37.2741C50.8975 35.3099 52.8313 33.1898 54.9751 31.3711C54.9717 31.4253 53.6915 40.7692 53.6441 41.1249Z" fill="#F91155"/>
<path d="M44.284 -8.58541C44.284 -8.58541 44.1079 -8.13836 43.9487 -7.8234C42.2587 -4.04382 40.755 -0.541948 38.5977 2.96669C36.7417 5.98426 34.8249 8.93748 32.6167 11.6841C31.8445 12.6459 31.0622 13.6315 30.0699 14.3528C28.5154 15.484 26.9643 16.5745 25.3962 17.682C23.1745 19.25 20.9325 20.8046 18.8802 22.6198C18.0707 23.3344 17.2986 24.0931 16.6585 24.9905C16.1674 25.678 15.6797 26.3791 15.1074 26.9887C12.7807 29.4813 10.2 31.6793 7.599 33.84C4.91672 36.0651 2.21411 38.2631 -0.491879 40.4543C-2.17508 41.8192 -3.89215 43.1298 -5.7413 44.2407C-6.11045 44.4608 -6.52363 44.6267 -6.91988 44.7859C-6.98084 44.8096 -10.7875 46.3269 -11.0957 46.608C-11.072 46.9263 -10.7435 51.5357 -10.7333 51.5966C-10.6791 51.5661 -9.592 50.6924 -9.37525 50.5332C-7.81736 49.3546 -7.00116 48.4808 -5.2807 47.6138C-3.32656 46.6283 -1.36565 45.7173 0.551231 44.6606C4.94042 42.2256 9.28559 39.6279 13.519 36.9084C15.4799 35.6486 17.4205 34.3853 19.3272 33.034C21.6133 31.4219 23.6013 29.4644 25.5419 27.429C27.9159 24.9364 30.246 22.3929 32.5591 19.8326C34.1373 18.085 35.6783 16.2697 37.2159 14.4782C38.2454 13.2793 39.275 12.0905 40.2605 10.851C41.9099 8.76815 43.3018 6.51259 44.7412 4.26719C45.6285 2.88203 46.5361 1.49347 47.5352 0.199742C50.0854 -3.1057 52.3918 -6.29599 55.538 -9.40161L44.284 -8.58541Z" fill="#F91155"/>
<path d="M9.11597 2.54C6.97218 4.8091 4.87918 7.08159 2.7828 9.39811C1.64148 10.6647 0.611917 12.0296 -0.515862 13.3165C-2.53096 15.6161 -4.61718 17.8886 -6.99804 19.7682C-9.41278 21.6716 -12.0104 23.5952 -14.4725 25.4376C-14.4793 25.2988 -14.7706 18.8437 -14.7773 18.698C-13.7342 16.9302 -12.6843 14.9286 -11.9088 13.0084C-11.4516 11.8738 -11.0486 10.6817 -10.588 9.54712C-9.70742 7.36269 -8.55255 5.36452 -6.85242 3.77276C-5.90413 2.88205 -4.81361 2.25212 -3.69261 1.65267C-0.329591 -0.149061 3.03004 -1.98128 6.39982 -3.76608C8.40815 -4.8329 9.92879 -6.69221 11.7204 -8.0977L18.8291 -8.41943C15.6015 -4.74484 12.479 -1.01945 9.11597 2.54Z" fill="#F91155"/>
<path d="M24.0517 55.0309C24.6037 54.4924 25.1219 54.0047 25.6299 53.4865C28.004 51.0616 30.693 49.0703 33.3381 47.0077C33.907 46.5641 34.4658 46.0899 35.0043 45.6022C35.194 45.4228 35.3362 45.206 35.4446 44.9655C35.5157 44.8131 35.5733 44.5659 35.492 44.4609C35.387 44.3255 35.133 44.19 34.9738 44.2272C34.5878 44.3085 34.1746 44.4135 33.8427 44.6269C31.9326 45.8563 30.0495 47.1161 28.1598 48.3726C27.5163 48.8027 26.8762 49.2972 26.2361 49.7273C25.0643 50.5062 24.0347 51.4918 23.1677 52.6297C22.6157 53.3578 22.0908 53.8929 21.4981 54.5838C21.427 54.6685 21.2339 54.8548 21.1018 54.9936C20.6616 54.9902 14.0947 54.9157 13.9863 54.9157C14.7517 54.4179 15.6187 53.7947 15.9337 53.561C19.3577 50.9973 22.1314 49.4394 25.7891 47.2922C29.0335 45.3855 32.234 43.3975 35.4446 41.4332C36.5622 40.7491 37.7035 40.0616 38.5536 38.988C39.109 38.2869 39.6882 37.613 40.2266 36.895C41.964 34.5785 43.6811 32.1976 45.4253 29.8845C46.5361 28.4113 47.647 26.955 48.9881 25.7019C49.9567 24.7942 50.993 23.9713 51.9684 23.0738C53.8988 21.2991 53.3942 18.9488 56.9604 13.4792C58.9451 10.4345 60.2591 9.42191 61.3327 8.26027C62.0202 7.51519 64.0251 6.37725 64.8312 5.77441C64.8244 6.26549 64.8075 7.95208 64.8041 8.29752C63.3309 9.56077 60.9432 13.0694 60.6723 15.0405C59.7003 22.0747 53.2892 26.3284 50.021 30.5347C48.4902 32.5126 46.7461 34.2296 44.8834 35.8485C43.6608 36.9119 42.4788 38.016 41.5034 39.3436C41.1106 39.8787 40.8464 40.512 40.4874 41.0776C39.3088 42.92 38.1099 44.7623 36.911 46.5912C36.017 47.9459 35.1262 49.3276 34.1339 50.601C32.952 52.1183 32.0477 53.1512 30.7912 54.6042C30.7303 54.6753 30.5135 54.9428 30.351 55.1054L24.0517 55.0309Z" fill="#F91155"/>
<path d="M-12.8105 57.6793C-9.17998 55.1088 -5.00754 52.9549 -1.18393 50.6654C0.573773 49.6122 2.37889 48.6334 4.18402 47.6716C6.16863 46.6149 8.15664 45.5244 10.2022 44.6201C13.5348 43.1469 16.5388 41.1792 19.3362 38.7984C20.2642 38.0092 21.0939 37.0779 21.9338 36.177C23.6983 34.2839 25.4831 32.3636 27.2069 30.4298C28.9071 28.523 30.5395 26.5689 32.2193 24.6419C33.0897 23.6428 34.038 22.7114 35.1183 21.9697C35.3554 21.8139 35.6297 21.7259 35.8939 21.6345C36.1682 21.5362 36.3545 21.6548 36.2901 21.9494C36.1818 22.4473 36.0327 22.9891 35.7991 23.4294C35.0032 24.8993 34.1904 26.3217 33.32 27.7475C32.2362 29.5255 31.0204 31.2494 29.6826 32.8208C28.477 34.2398 27.1629 35.4861 25.6761 36.5699C24.6601 37.3014 23.6814 38.1379 22.7703 39.0117C21.3479 40.3935 19.7155 41.4603 18.1068 42.5881C14.6896 44.9859 11.1336 47.1907 7.6046 49.3988C3.92324 51.7018 1.05469 54.1131 -2.65716 57.4897L-12.8105 57.6793Z" fill="#F91155"/>
<path d="M55.5379 6.17062C58.0169 5.03946 62.0268 1.6121 63.7777 -0.132063L63.0801 -10.5293C62.3181 -9.90275 61.109 -9.03914 60.4147 -8.44308C59.6832 -7.82331 58.7519 -6.97324 58.0813 -6.28574C55.3346 -3.4646 54.488 -2.12007 51.931 0.88734C49.5975 3.63058 47.0914 6.43818 45.4793 9.73684C44.934 10.8578 44.47 11.989 43.9214 13.1066C42.4516 16.1174 40.7684 19.0334 39.1224 21.9392C37.9066 24.083 36.6196 26.1421 35.0956 28.0522C33.7545 29.732 32.4167 31.4152 31.0383 33.0612C30.1103 34.172 29.179 35.2693 28.1664 36.2887C26.7338 37.7349 25.0878 38.8965 23.4148 40.0107C21.6808 41.1724 19.9299 42.2934 18.162 43.3975C16.0148 44.7386 14.1961 46.537 12.4046 48.3387C11.6561 49.0939 10.9178 49.8729 10.1185 50.5604C8.13392 52.2673 6.33895 53.3104 4.56431 55.2578C4.40175 55.4339 3.99873 55.8538 3.91406 55.9453L12.4859 55.3695C12.8347 55.1325 13.3901 54.4246 13.661 54.0961C14.3621 53.0327 14.8159 52.5585 15.4391 51.4477C16.13 50.2149 17.0647 49.2294 18.2467 48.5453C19.178 48.0068 20.0755 47.4649 21.0102 46.9332C22.2904 46.2051 23.6519 45.5751 24.8643 44.742C27.3231 43.052 29.7446 41.2808 32.1221 39.4723C34.3505 37.7721 36.5011 35.967 38.6821 34.2025C39.4543 33.5794 40.1113 32.8919 40.6227 32.0011C41.8453 29.8675 42.8072 27.5849 43.6505 25.265C44.3244 23.4124 44.9273 21.526 45.5809 19.6599C46.7866 16.2224 48.4427 13.0186 50.3223 9.95698C51.7854 7.58966 53.0622 7.30179 55.5379 6.17062Z" fill="#F91155"/>
</g>
<mask id="mask2_950_83879" style="mask-type:luminance" maskUnits="userSpaceOnUse" x="0" y="0" width="49" height="48">
<path d="M38.736 48H9.93534C4.63173 48 0.333984 43.7022 0.333984 38.402V9.60135C0.333984 4.29775 4.63173 0 9.93534 0H38.736C44.0396 0 48.3374 4.29775 48.3374 9.60135V38.402C48.334 43.7022 44.0362 48 38.736 48Z" fill="white"/>
</mask>
<g mask="url(#mask2_950_83879)">
<mask id="mask3_950_83879" style="mask-type:luminance" maskUnits="userSpaceOnUse" x="0" y="0" width="49" height="48">
<path d="M48.334 0H0.333984V48H48.334V0Z" fill="white"/>
</mask>
<g mask="url(#mask3_950_83879)">
<path d="M5.43818 32.0892C3.63305 32.8342 1.61795 31.632 1.33686 29.6406C1.1472 28.2859 1.89228 26.9481 3.12505 26.4401C4.93017 25.695 6.94527 26.8973 7.22637 28.8887C7.41264 30.2434 6.66756 31.5812 5.43818 32.0892ZM3.35534 23.6156C-0.13298 24.1812 -2.18195 27.8524 -0.908539 31.2594C0.0329694 33.7791 2.6272 35.3303 5.20788 34.9103C8.6962 34.3481 10.7452 30.6735 9.47176 27.2665C8.53025 24.7467 5.93602 23.199 3.35534 23.6156Z" fill="white"/>
<path d="M11.1514 21.6309C10.3657 21.8409 9.94238 22.7316 10.3285 23.5139C10.6096 24.0863 11.2801 24.3505 11.8897 24.1879L15.4221 23.243L11.8999 32.079C11.7848 32.3702 12.0455 32.6716 12.347 32.5904L20.9662 30.2806C21.5758 30.118 22.0228 29.5525 21.9788 28.9158C21.9212 28.0454 21.1084 27.4866 20.3261 27.6965L16.0249 28.848L19.5437 20.0188C19.6589 19.7276 19.3947 19.4228 19.0933 19.5041L11.1514 21.6309Z" fill="white"/>
<path d="M45.5736 12.3547C45.0182 12.6392 44.7608 13.303 44.9233 13.9126L46.0714 18.19L37.7029 14.5188C37.4116 14.3901 37.1034 14.6577 37.1881 14.9693L39.5554 23.8018C39.718 24.4115 40.2734 24.8585 40.8965 24.8246C41.7669 24.7772 42.3257 23.9542 42.109 23.155L40.9541 18.8403L49.3227 22.5115C49.614 22.6402 49.9221 22.3726 49.8375 22.0611L47.4634 13.1946C47.2466 12.392 46.3525 11.9585 45.5736 12.3547Z" fill="white"/>
<path d="M27.6069 16.9369C23.4142 18.0579 20.6811 21.4446 21.5007 24.4995C22.3202 27.5543 26.3809 29.119 30.5703 27.9946C34.7597 26.8702 37.4961 23.4868 36.6766 20.432C35.857 17.3772 31.7963 15.8125 27.6069 16.9369ZM28.2978 19.5176C31.1935 18.742 33.7741 19.7174 34.1467 21.1094C34.5192 22.5013 32.7751 24.6383 29.8794 25.4139C26.9838 26.1894 24.4031 25.2141 24.0305 23.8221C23.6546 22.4268 25.4022 20.2932 28.2978 19.5176Z" fill="white"/>
</g>
</g>
</g>
<defs>
<clipPath id="clip0_950_83879">
<rect width="48" height="48" fill="white" transform="translate(0.333984)"/>
</clipPath>
</defs>
</svg>
