<svg width="32" height="32" viewBox="0 0 32 32" fill="none" xmlns="http://www.w3.org/2000/svg">
<path d="M16 17.6922C17.4987 17.6922 18.8838 17.2563 19.9918 16.5156C20.8501 15.9484 21.9673 16.0422 22.7212 16.75C24.8147 18.7094 26.0045 21.4891 26 24.4094V25.6609C26 26.9547 24.9827 28 23.7293 28H8.27071C7.01731 28 6.00005 26.9547 6.00005 25.6609V24.4094C5.99097 21.4937 7.18079 18.7094 9.27434 16.7547C10.0282 16.0469 11.1499 15.9531 12.0037 16.5203C13.1163 17.2563 14.4968 17.6922 16 17.6922Z" fill="white"/>
<path d="M16 15.6063C19.105 15.6063 21.6222 13.0081 21.6222 9.80313C21.6222 6.59815 19.105 4 16 4C12.895 4 10.3779 6.59815 10.3779 9.80313C10.3779 13.0081 12.895 15.6063 16 15.6063Z" fill="white"/>
</svg>
