<svg width="32" height="33" viewBox="0 0 32 33" fill="none" xmlns="http://www.w3.org/2000/svg">
<g clip-path="url(#clip0_1063_84752)">
<path d="M31.3162 6.94563C30.7144 4.22813 28.08 1.73876 25.355 1.21001C23.6944 0.878132 19.0625 0.468132 16 0.500007C12.9375 0.466257 8.30625 0.875007 6.64563 1.20813C3.92063 1.73876 1.28625 4.22813 0.6875 6.94563C0.341875 8.59563 0.005 10.8406 0 13.905C0.005 16.9675 0.341875 19.2131 0.6875 20.8638C1.28938 23.5813 3.92375 26.0706 6.64875 26.5994C7.545 26.7781 9.30813 26.9806 11.2219 27.1231C11.4385 27.4635 11.674 27.826 11.9281 28.2106C12.9438 29.7494 13.7206 30.8213 14.31 31.5681C15.29 32.8106 16.7163 32.8106 17.6963 31.5681C18.2856 30.8213 19.0625 29.7494 20.0781 28.2106C20.3323 27.8265 20.5677 27.464 20.7844 27.1231C22.6987 26.9806 24.4613 26.7781 25.3581 26.5994C28.0831 26.0706 30.7175 23.5813 31.3194 20.8638C31.6619 19.2131 31.9981 16.9688 32.0037 13.905C31.995 10.84 31.6588 8.59626 31.3162 6.94563Z" fill="#F9973E"/>
<path d="M16 0.500007C12.9375 0.466257 8.30625 0.875007 6.64563 1.20813C3.92063 1.73876 1.28625 4.22813 0.6875 6.94563C0.341875 8.59563 0.005 10.8406 0 13.905C0.005 16.9675 0.341875 19.2131 0.6875 20.8638C1.04188 22.4631 2.10063 23.9838 3.4675 25.0719C4.80082 25.3911 6.16712 25.552 7.53813 25.5513C17.14 25.5513 24.9237 17.7675 24.9237 8.16626C24.926 5.66582 24.3865 3.19457 23.3425 0.922507C21.2069 0.682507 18.1994 0.477507 16 0.500007Z" fill="#FCA84C"/>
<path d="M17.7674 23.1962C17.7259 23.3909 17.6289 23.5694 17.4882 23.7101C17.3474 23.8509 17.1689 23.9479 16.9743 23.9894C16.3287 24.0885 15.6717 24.0885 15.0261 23.9894C14.8314 23.9479 14.6529 23.851 14.5121 23.7102C14.3714 23.5695 14.2744 23.3909 14.233 23.1962C14.133 22.5505 14.133 21.8932 14.233 21.2475C14.2744 21.0528 14.3714 20.8743 14.5121 20.7335C14.6529 20.5927 14.8314 20.4958 15.0261 20.4544C15.6717 20.3552 16.3287 20.3552 16.9743 20.4544C17.1693 20.496 17.348 20.5934 17.4888 20.7346C17.6295 20.8758 17.7263 21.0549 17.7674 21.25C17.8674 21.8957 17.8674 22.553 17.7674 23.1987V23.1962ZM21.5724 12.9594C21.0899 13.6419 20.3668 14.265 19.2968 14.9194C17.9424 15.7544 17.7255 16.0975 17.7255 16.7694V17.035C17.7299 17.2647 17.6884 17.4929 17.6035 17.7063C17.5187 17.9198 17.3921 18.1142 17.2312 18.2782C17.0704 18.4421 16.8784 18.5724 16.6666 18.6613C16.4548 18.7502 16.2274 18.796 15.9977 18.796C15.768 18.796 15.5406 18.7502 15.3288 18.6613C15.117 18.5724 14.925 18.4421 14.7642 18.2782C14.6033 18.1142 14.4767 17.9198 14.3918 17.7063C14.307 17.4929 14.2655 17.2647 14.2699 17.035V16.4194C14.2699 15.6269 14.468 14.9544 14.8755 14.3637C15.2705 13.7912 15.863 13.2825 16.7405 12.7606C18.3586 11.8087 18.6549 11.2744 18.6549 10.565C18.6549 9.67374 17.8955 9.09749 16.7174 9.09749C15.4305 9.09749 14.5924 9.68249 14.2268 10.8369C14.1083 11.2082 13.8742 11.532 13.5587 11.7609C13.2432 11.9899 12.8628 12.1119 12.473 12.1094C12.428 12.1094 12.3824 12.1094 12.338 12.1044C12.058 12.0846 11.7862 12.0012 11.5433 11.8604C11.3005 11.7195 11.093 11.5251 10.9368 11.2919C10.7807 11.0628 10.679 10.8011 10.6396 10.5267C10.6002 10.2523 10.624 9.97251 10.7093 9.70874C11.0843 8.50675 11.8533 7.46618 12.8924 6.75499C13.9399 6.04124 15.263 5.66437 16.7174 5.66437C18.228 5.66437 19.6299 6.14624 20.6649 7.02124C21.7305 7.92124 22.3168 9.16312 22.3168 10.5175C22.3199 11.4487 22.0755 12.25 21.5724 12.9594Z" fill="white"/>
</g>
<defs>
<clipPath id="clip0_1063_84752">
<rect width="32" height="32" fill="white" transform="translate(0 0.5)"/>
</clipPath>
</defs>
</svg>
