<svg width="32" height="33" viewBox="0 0 32 33" fill="none" xmlns="http://www.w3.org/2000/svg">
<g clip-path="url(#clip0_1063_84697)">
<path d="M31.5312 2.84375V12.8438C31.5312 13.8794 30.6919 14.7188 29.6562 14.7188H27.7812L25.9062 2.84375C25.9062 1.80813 28.6206 0.96875 29.6562 0.96875C30.6919 0.96875 31.5312 1.80813 31.5312 2.84375Z" fill="#FFCE71"/>
<path d="M29.6553 0.96875C28.6197 0.96875 27.7803 1.80813 27.7803 2.84375V24.6769C14.646 22.7188 9.14372 11.1586 11.4641 0.96875H29.6553Z" fill="#FFF8E6"/>
<path d="M27.7805 24.6769V28.2812C27.7805 29.3168 26.941 30.1562 25.9055 30.1562H8.23047C7.19491 30.1562 6.35547 29.3168 6.35547 28.2812V3.46875C6.35547 2.08806 7.47478 0.96875 8.85547 0.96875H11.4642C10.7586 9.86687 16.0267 21.6144 27.7805 24.6769Z" fill="#FFF1CF"/>
<path d="M22.5746 29.3046C21.9865 30.1678 21.2002 30.8534 20.3027 31.3209C19.584 31.0428 17.7322 30.6738 17.2791 30.1025C16.5859 28.5177 18.2379 28.827 21.5227 27.2759L21.9621 27.4359C22.724 27.7133 23.0309 28.6352 22.5746 29.3046Z" fill="#FF6E80"/>
<path d="M20.3029 31.3208C18.8023 32.1033 16.9898 32.2771 15.2742 31.6527C12.5323 30.6546 10.9129 27.9371 11.191 25.1615C11.2717 24.3552 12.0998 23.8465 12.861 24.1233L13.3004 24.2833C13.5294 26.2897 17.358 29.4557 18.5448 30.0058C18.9979 30.5771 19.5842 31.0427 20.3029 31.3208Z" fill="#FD5C6F"/>
<path d="M21.5238 27.2758C21.0169 28.6689 19.8763 29.6477 18.5457 30.0058C16.8347 28.8795 16.1398 27.2565 17.4394 25.7896L21.5238 27.2758Z" fill="#FFA1AC"/>
<path d="M18.5445 30.0058C17.7064 30.2315 16.7926 30.2102 15.9151 29.8908C13.6445 29.0646 12.4739 26.554 13.3001 24.2833L17.4382 25.7896C17.2295 27.1658 17.5989 28.8158 18.5445 30.0058Z" fill="#FF8A98"/>
<path d="M7.92633 26.3017C7.69825 26.5297 7.45248 26.7394 7.19133 26.9286C4.08483 26.9332 2.4927 25.2933 3.8657 21.7917C5.75633 20.0873 8.19383 20.0398 9.24508 20.1136C9.55508 20.1348 9.80195 20.3817 9.8232 20.6917C9.90001 21.7861 9.84501 24.3837 7.92633 26.3017Z" fill="#8CE09F"/>
<path d="M7.1916 26.9286C4.77785 28.6761 1.79598 28.1411 1.79598 28.1411C1.79598 28.1411 1.14285 24.5029 3.63535 22.0104C3.71022 21.9354 3.78712 21.8625 3.86598 21.7917C3.49716 23.9611 4.77216 26.0217 7.1916 26.9286Z" fill="#73DA8C"/>
<path d="M12.0178 7.86937C13.047 7.86937 13.8813 7.20496 13.8813 6.38537C13.8813 5.56578 13.047 4.90137 12.0178 4.90137C10.9886 4.90137 10.1543 5.56578 10.1543 6.38537C10.1543 7.20496 10.9886 7.86937 12.0178 7.86937Z" fill="#FFA1AC"/>
<path d="M22.1194 7.86937C23.1485 7.86937 23.9829 7.20496 23.9829 6.38537C23.9829 5.56578 23.1485 4.90137 22.1194 4.90137C21.0902 4.90137 20.2559 5.56578 20.2559 6.38537C20.2559 7.20496 21.0902 7.86937 22.1194 7.86937Z" fill="#FFA1AC"/>
<path d="M8.44169 13.7524C4.68713 14.3166 2.07519 12.7023 2.25482 8.91924C2.52285 8.68156 2.81435 8.47173 3.12482 8.293C5.66607 6.82612 8.91482 7.69612 10.3823 10.2374C10.9398 11.203 9.95607 12.5692 8.44169 13.7524Z" fill="#FFCE71"/>
<path d="M8.44261 13.7524C5.97261 15.6818 2.09074 17.1249 1.18136 15.5499C-0.103013 13.3249 0.404487 10.558 2.25574 8.91925C2.87636 11.7086 5.26574 13.5993 8.44261 13.7524Z" fill="#FFB357"/>
<path d="M8.44266 13.7524C5.34984 14.4653 3.45509 13.3186 3.03516 10.8268C3.31297 10.4572 3.6627 10.1476 4.06328 9.91676C5.70453 8.96926 7.81078 9.53364 8.75891 11.1749C9.32016 12.1474 8.71828 13.5368 8.44266 13.7524Z" fill="#E4996D"/>
<path d="M8.44337 13.7523C7.96524 14.1255 7.43462 14.4805 6.88274 14.7992C6.33024 15.118 5.75774 15.3998 5.19524 15.6273C4.87087 15.7586 3.36649 15.5848 2.80524 14.6123C2.09649 13.3842 2.23399 11.8955 3.03587 10.8267C4.11837 12.5442 6.05899 13.6373 8.44337 13.7523Z" fill="#DF8A57"/>
<path d="M8.44383 13.7524C6.72364 14.7305 5.43395 14.3036 4.67383 12.533C4.81758 12.3124 5.01383 12.1217 5.25633 11.9817C5.52695 11.8255 5.82445 11.7505 6.1182 11.7505C6.65758 11.7505 7.18633 12.003 7.52133 12.4692L8.44383 13.7524Z" fill="#FFCE71"/>
<path d="M9.07915 16.9911L7.6829 17.7974C7.04227 18.1674 6.2229 17.903 5.91853 17.2293L4.5454 14.1874C4.29603 13.6336 4.36102 13.0124 4.67352 12.533C5.7029 13.2493 6.99102 13.6824 8.44352 13.7524L9.46915 15.1793C9.90102 15.7799 9.71977 16.6218 9.07915 16.9911Z" fill="#FFB357"/>
<path fill-rule="evenodd" clip-rule="evenodd" d="M22.3117 0.96875C22.3117 0.709867 22.5216 0.5 22.7805 0.5H29.6555C30.95 0.5 31.9992 1.54924 31.9992 2.84375V12.8438C31.9992 14.1383 30.95 15.1875 29.6555 15.1875H27.7805C27.5216 15.1875 27.3117 14.9776 27.3117 14.7188C27.3117 14.4599 27.5216 14.25 27.7805 14.25H29.6555C30.4322 14.25 31.0617 13.6205 31.0617 12.8438V2.84375C31.0617 2.06701 30.4322 1.4375 29.6555 1.4375H22.7805C22.5216 1.4375 22.3117 1.22763 22.3117 0.96875ZM6.35547 17.2812C6.61435 17.2812 6.82422 17.4911 6.82422 17.75V20.4188C6.82422 20.6776 6.61435 20.8875 6.35547 20.8875C6.09659 20.8875 5.88672 20.6776 5.88672 20.4188V17.75C5.88672 17.4911 6.09659 17.2812 6.35547 17.2812ZM6.35547 26.9694C6.61435 26.9694 6.82422 27.1792 6.82422 27.4381V28.2812C6.82422 29.058 7.45373 29.6875 8.23047 29.6875H12.948C13.2069 29.6875 13.4167 29.8974 13.4167 30.1562C13.4167 30.4151 13.2069 30.625 12.948 30.625H8.23047C6.93596 30.625 5.88672 29.5758 5.88672 28.2812V27.4381C5.88672 27.1792 6.09659 26.9694 6.35547 26.9694Z" fill="black"/>
<path fill-rule="evenodd" clip-rule="evenodd" d="M8.85547 1.4375C7.73366 1.4375 6.82422 2.34695 6.82422 3.46875V7.6125C6.82422 7.87138 6.61435 8.08125 6.35547 8.08125C6.09659 8.08125 5.88672 7.87138 5.88672 7.6125V3.46875C5.88672 1.82918 7.2159 0.5 8.85547 0.5H29.6555C29.9144 0.5 30.1242 0.709867 30.1242 0.96875C30.1242 1.22763 29.9144 1.4375 29.6555 1.4375C28.8787 1.4375 28.2492 2.06701 28.2492 2.84375V7.33375C28.2492 7.59263 28.0394 7.8025 27.7805 7.8025C27.5216 7.8025 27.3117 7.59263 27.3117 7.33375V2.84375C27.3117 2.3161 27.486 1.8292 27.7802 1.4375H8.85547ZM27.7805 9.0525C28.0394 9.0525 28.2492 9.26237 28.2492 9.52125V28.2812C28.2492 29.5758 27.2 30.625 25.9055 30.625H21.8748C21.616 30.625 21.4061 30.4151 21.4061 30.1562C21.4061 29.8974 21.616 29.6875 21.8748 29.6875H25.9055C26.6822 29.6875 27.3117 29.058 27.3117 28.2812V9.52125C27.3117 9.26237 27.5216 9.0525 27.7805 9.0525ZM14.2467 12.6562C14.2467 12.3974 14.4565 12.1875 14.7154 12.1875H22.8404C23.0993 12.1875 23.3092 12.3974 23.3092 12.6562C23.3092 12.9151 23.0993 13.125 22.8404 13.125H14.7154C14.4565 13.125 14.2467 12.9151 14.2467 12.6562ZM14.2467 15.1562C14.2467 14.8974 14.4565 14.6875 14.7154 14.6875H22.8404C23.0993 14.6875 23.3092 14.8974 23.3092 15.1562C23.3092 15.4151 23.0993 15.625 22.8404 15.625H14.7154C14.4565 15.625 14.2467 15.4151 14.2467 15.1562ZM14.2467 17.6562C14.2467 17.3974 14.4565 17.1875 14.7154 17.1875H22.8404C23.0993 17.1875 23.3092 17.3974 23.3092 17.6562C23.3092 17.9151 23.0993 18.125 22.8404 18.125H14.7154C14.4565 18.125 14.2467 17.9151 14.2467 17.6562ZM14.2467 20.1562C14.2467 19.8974 14.4565 19.6875 14.7154 19.6875H22.8404C23.0993 19.6875 23.3092 19.8974 23.3092 20.1562C23.3092 20.4151 23.0993 20.625 22.8404 20.625H14.7154C14.4565 20.625 14.2467 20.4151 14.2467 20.1562Z" fill="black"/>
<path d="M12.8612 24.1232C12.0998 23.8461 11.2718 24.3547 11.191 25.161C10.9129 27.9372 12.5321 30.6545 15.2742 31.6526C18.0164 32.6507 21.0034 31.6098 22.5749 29.3044C23.0313 28.6348 22.724 27.713 21.9625 27.4359L12.8612 24.1232Z" stroke="black" stroke-width="0.9375" stroke-miterlimit="10" stroke-linecap="round" stroke-linejoin="round"/>
<path d="M2.71685 23.1887C1.32372 25.5094 1.79622 28.1412 1.79622 28.1412C1.79622 28.1412 5.43435 28.7944 7.92685 26.3019C9.8456 24.3837 9.9006 21.7862 9.82372 20.6919C9.81343 20.5419 9.74922 20.4008 9.64295 20.2945C9.53668 20.1882 9.39554 20.124 9.2456 20.1137C8.2481 20.0437 6.00247 20.0831 4.15997 21.5437M6.26104 23.6764L1.79597 28.1415M8.44254 13.7519C9.95691 12.5694 10.9407 11.2031 10.3832 10.2375C8.91566 7.69624 5.66691 6.82624 3.12566 8.29312C0.585037 9.75999 -0.285588 13.0087 1.18129 15.55C1.73879 16.5156 3.41316 16.3469 5.19504 15.6275M13.3008 24.2832C12.4745 26.5537 13.6452 29.0642 15.9157 29.8907C18.1862 30.7171 20.6967 29.5464 21.5232 27.2759L13.3008 24.2832Z" stroke="black" stroke-width="0.9375" stroke-miterlimit="10" stroke-linecap="round" stroke-linejoin="round"/>
<path d="M4.67479 9.6394C4.46265 9.71168 4.25813 9.80463 4.06416 9.9169C2.42229 10.865 1.85791 12.9713 2.80541 14.6125C3.36666 15.585 4.87104 15.7588 5.19541 15.6275M6.86229 9.6319C7.63541 9.88752 8.32166 10.4163 8.75979 11.175C9.32104 12.1475 8.71916 13.5369 8.44354 13.7525" stroke="black" stroke-width="0.9375" stroke-miterlimit="10" stroke-linecap="round" stroke-linejoin="round"/>
<path d="M15.2622 5.0675C15.2622 5.5665 15.6667 5.971 16.1657 5.971C16.6647 5.971 17.0692 5.5665 17.0692 5.0675C17.0692 5.5665 17.4737 5.971 17.9727 5.971C18.4717 5.971 18.8762 5.5665 18.8762 5.0675M14.0844 4.32906C14.0844 3.85394 13.6992 3.46875 13.2241 3.46875C12.749 3.46875 12.3638 3.85394 12.3638 4.32906M20.0541 4.32906C20.0541 3.85394 20.4392 3.46875 20.9144 3.46875C21.3895 3.46875 21.7747 3.85394 21.7747 4.32906M9.07937 16.9914L7.68287 17.7977C7.04243 18.1674 6.22274 17.9034 5.91849 17.2293L4.54568 14.1873C4.18081 13.3788 4.48793 12.4254 5.25612 11.9819C6.02431 11.5384 7.00356 11.7491 7.52131 12.4693L9.46937 15.1792C9.90099 15.7797 9.71981 16.6216 9.07937 16.9914Z" stroke="black" stroke-width="0.9375" stroke-miterlimit="10" stroke-linecap="round" stroke-linejoin="round"/>
</g>
<defs>
<clipPath id="clip0_1063_84697">
<rect width="32" height="32" fill="white" transform="translate(0 0.5)"/>
</clipPath>
</defs>
</svg>
