<svg width="32" height="33" viewBox="0 0 32 33" fill="none" xmlns="http://www.w3.org/2000/svg">
<g clip-path="url(#clip0_1063_84629)">
<path d="M31.1041 12.106L21.3157 10.6837L16.9381 1.81374C16.5552 1.03786 15.4451 1.03749 15.0619 1.81374L10.6844 10.6837L0.896001 12.106C0.0399383 12.2304 -0.303874 13.2859 0.316251 13.8903L7.39919 20.7945L5.72706 30.5434C5.69406 30.7358 5.71554 30.9336 5.78909 31.1144C5.86263 31.2952 5.98529 31.4518 6.14321 31.5666C6.30112 31.6813 6.48799 31.7496 6.68268 31.7636C6.87737 31.7777 7.07211 31.737 7.24488 31.6462L16 27.0435C25.5316 32.0544 24.8769 31.7664 25.2418 31.7664C25.8866 31.7664 26.383 31.1852 26.2729 30.5434L24.6009 20.7945L31.6839 13.8903C32.3033 13.2864 31.9609 12.2305 31.1041 12.106Z" fill="#F7AC16"/>
<path d="M16.0001 1.23059C15.8049 1.2306 15.6135 1.28522 15.4478 1.38826C15.282 1.49131 15.1483 1.63868 15.0619 1.81372L10.6844 10.6837L0.896001 12.106C0.0399383 12.2304 -0.303874 13.2859 0.316251 13.8903L7.39919 20.7945L5.72706 30.5434C5.69406 30.7358 5.71554 30.9336 5.78909 31.1144C5.86263 31.2952 5.98529 31.4518 6.14321 31.5666C6.30112 31.6813 6.48799 31.7495 6.68268 31.7636C6.87737 31.7777 7.07211 31.737 7.24488 31.6462L16 27.0435H16.0001V1.23059Z" fill="#F2D422"/>
<path d="M0.896001 12.106C0.0399383 12.2304 -0.303874 13.2859 0.316251 13.8903L7.39919 20.7945L5.72706 30.5434C5.69406 30.7358 5.71554 30.9336 5.78909 31.1144C5.86263 31.2952 5.98529 31.4518 6.14321 31.5666C6.30112 31.6813 6.48799 31.7495 6.68268 31.7636C6.87737 31.7777 7.07211 31.737 7.24488 31.6462L16 27.0435C25.5316 32.0544 24.8769 31.7664 25.2418 31.7664C25.4628 31.7664 25.678 31.6965 25.8568 31.5666L10.6844 10.6836L0.896001 12.106Z" fill="#F7AC16"/>
<path d="M11.1599 19.5904C3.57275 12.1947 3.89888 12.5911 3.79706 12.2075C3.75563 12.0534 3.74713 11.8742 3.79219 11.6851L0.896001 12.1059C0.0399383 12.2304 -0.303874 13.2859 0.316251 13.8902L7.39919 20.7945L5.72706 30.5434C5.69406 30.7358 5.71554 30.9336 5.78909 31.1144C5.86263 31.2952 5.98529 31.4518 6.14321 31.5666C6.30112 31.6813 6.48799 31.7496 6.68268 31.7636C6.87737 31.7777 7.07211 31.737 7.24488 31.6462L9.81906 30.2929C9.68782 30.1748 9.5886 30.0254 9.53067 29.8587C9.47274 29.6919 9.45797 29.5132 9.48775 29.3392L11.1599 19.5904Z" fill="#F48B19"/>
<path d="M0.316302 13.8903L7.39924 20.7946L5.72711 30.5434C5.69411 30.7358 5.7156 30.9336 5.78914 31.1144C5.86268 31.2952 5.98534 31.4518 6.14326 31.5666C6.30117 31.6813 6.48804 31.7496 6.68273 31.7636C6.87742 31.7777 7.07216 31.737 7.24493 31.6462L16.0001 27.0435C25.5317 32.0544 24.877 31.7664 25.2419 31.7664C25.8866 31.7664 26.3831 31.1852 26.273 30.5434L24.6009 20.7946L0.0514896 12.8179C-0.0708229 13.2564 0.0516146 13.6324 0.316302 13.8903Z" fill="#F2D422"/>
<path d="M0.316302 13.8903L7.39924 20.7946L5.72711 30.5434C5.69411 30.7358 5.7156 30.9336 5.78914 31.1144C5.86268 31.2952 5.98534 31.4518 6.14326 31.5666C6.30117 31.6813 6.48804 31.7496 6.68273 31.7636C6.87742 31.7777 7.07216 31.737 7.24493 31.6462L9.81911 30.2929C9.68787 30.1748 9.58865 30.0254 9.53072 29.8587C9.47279 29.6919 9.45802 29.5132 9.4878 29.3392L11.1599 19.5904L6.29255 14.8458L0.0514896 12.8179C-0.0708229 13.2564 0.0516146 13.6324 0.316302 13.8903Z" fill="#EFB616"/>
<path d="M5.72795 30.5434C5.69495 30.7358 5.71643 30.9336 5.78997 31.1144C5.86351 31.2952 5.98618 31.4518 6.1441 31.5666C6.30201 31.6813 6.48888 31.7496 6.68357 31.7636C6.87825 31.7777 7.07299 31.737 7.24576 31.6462L16.0009 27.0435C25.5325 32.0544 24.8778 31.7664 25.2427 31.7664C25.8875 31.7664 26.3839 31.1852 26.2738 30.5434L24.6018 20.7946L31.6848 13.8903C31.8245 13.754 31.9233 13.5814 31.9701 13.3919C32.0169 13.2024 32.0097 13.0036 31.9495 12.818L7.40008 20.7946L5.72795 30.5434Z" fill="#F7AC16"/>
<path d="M5.72795 30.5434C5.69495 30.7358 5.71643 30.9336 5.78997 31.1144C5.86351 31.2952 5.98618 31.4518 6.1441 31.5666C6.30201 31.6813 6.48888 31.7495 6.68357 31.7636C6.87825 31.7777 7.07299 31.737 7.24576 31.6462L9.81995 30.2928C9.68871 30.1748 9.58949 30.0254 9.53156 29.8587C9.47362 29.6919 9.45886 29.5132 9.48864 29.3392L11.1608 19.5903L11.1471 19.577L7.40008 20.7945L5.72795 30.5434Z" fill="#F48B19"/>
<path d="M7.24427 31.6462L15.9993 27.0435C25.531 32.0544 24.8763 31.7664 25.2411 31.7664C25.8859 31.7664 26.3823 31.1852 26.2723 30.5434L24.6002 20.7945L31.6832 13.8903C32.3026 13.2863 31.9601 12.2305 31.1034 12.106L21.315 10.6837L6.14258 31.5666C6.30051 31.6813 6.48738 31.7496 6.68207 31.7636C6.87675 31.7777 7.07149 31.737 7.24427 31.6462Z" fill="#F2D422"/>
<path d="M31.948 12.8179L15.9993 17.9999L6.14258 31.5666C6.30049 31.6813 6.48736 31.7496 6.68203 31.7636C6.87671 31.7777 7.07144 31.737 7.2442 31.6462L15.9993 27.0435C25.531 32.0544 24.8763 31.7664 25.2411 31.7664C25.8859 31.7664 26.3823 31.1852 26.2723 30.5434L24.6002 20.7946L31.6832 13.8903C31.823 13.754 31.9218 13.5814 31.9686 13.3919C32.0154 13.2024 32.0082 13.0036 31.948 12.8179Z" fill="#F7AC16"/>
<path d="M24.6003 20.7945L15.9993 17.9999L6.14258 31.5666C6.30049 31.6813 6.48736 31.7495 6.68203 31.7636C6.87671 31.7777 7.07144 31.737 7.2442 31.6461L15.9993 27.0434C25.531 32.0544 24.8763 31.7664 25.2411 31.7664C25.8859 31.7664 26.3823 31.1851 26.2723 30.5434L24.6003 20.7945Z" fill="#F2D422"/>
<path d="M6.14258 31.5666C6.30049 31.6813 6.48736 31.7495 6.68203 31.7636C6.87671 31.7777 7.07144 31.737 7.2442 31.6461L15.9993 27.0434C25.531 32.0544 24.8763 31.7664 25.2411 31.7664C25.4621 31.7664 25.6774 31.6965 25.8561 31.5666L15.9993 17.9999L6.14258 31.5666Z" fill="#F7AC16"/>
<path d="M15.9994 18L15.9993 17.9999L6.14258 31.5666C6.30049 31.6813 6.48736 31.7495 6.68203 31.7636C6.87671 31.7777 7.07144 31.737 7.2442 31.6461L15.9993 27.0434H15.9994V18Z" fill="#F2D422"/>
<path d="M10.0205 26.2291L6.14258 31.5666C6.30049 31.6813 6.48736 31.7495 6.68203 31.7636C6.87671 31.7776 7.07144 31.737 7.2442 31.6461L9.81839 30.2928C9.68714 30.1748 9.58793 30.0254 9.53 29.8586C9.47206 29.6919 9.4573 29.5132 9.48708 29.3392L10.0205 26.2291Z" fill="#EFB616"/>
</g>
<defs>
<clipPath id="clip0_1063_84629">
<rect width="32" height="32" fill="white" transform="translate(0 0.5)"/>
</clipPath>
</defs>
</svg>
