<svg width="49" height="48" viewBox="0 0 49 48" fill="none" xmlns="http://www.w3.org/2000/svg">
<path d="M37.9849 30.196H34.1838V24.6051H38.0787C38.7832 24.6051 39.3912 24.7415 39.9025 25.0142C40.4196 25.2869 40.8173 25.6534 41.0957 26.1136C41.3741 26.5739 41.5133 27.0795 41.5133 27.6307C41.5133 28.3636 41.2406 28.9744 40.6951 29.4631C40.1497 29.9517 39.2463 30.196 37.9849 30.196Z" fill="url(#paint0_linear_950_83886)"/>
<path d="M37.7122 22.5511H34.1838V17.2415H37.7804C38.8258 17.2415 39.6014 17.4858 40.1071 17.9744C40.6128 18.4631 40.8656 19.0682 40.8656 19.7898C40.8656 20.3523 40.7235 20.8409 40.4395 21.2557C40.161 21.6648 39.7832 21.983 39.3059 22.2102C38.8343 22.4375 38.3031 22.5511 37.7122 22.5511Z" fill="url(#paint1_linear_950_83886)"/>
<path fill-rule="evenodd" clip-rule="evenodd" d="M0.666016 9.88235C0.666016 4.42449 5.0905 0 10.5484 0H38.7837C44.2416 0 48.666 4.42449 48.666 9.88235V38.1177C48.666 43.5756 44.2416 48 38.7837 48H10.5484C5.0905 48 0.666016 43.5756 0.666016 38.1177V9.88235ZM6.66602 15L11.5069 32.4545H14.166L17.8393 19.3807H17.9757L21.649 32.4545H24.2995L29.149 15H26.3706L22.9785 28.5256H22.8166L19.2797 15H16.5353L12.9984 28.517H12.8365L9.4359 15H6.66602ZM31.5502 15V32.4545H38.2406C39.5929 32.4545 40.7037 32.25 41.573 31.8409C42.4423 31.4261 43.0843 30.8665 43.4991 30.1619C43.9196 29.4517 44.1298 28.6506 44.1298 27.7585C44.1298 26.8551 43.948 26.0881 43.5843 25.4574C43.2207 24.8267 42.7605 24.3409 42.2037 24C41.6525 23.6534 41.0872 23.4659 40.5076 23.4375V23.267C41.0417 23.1307 41.5304 22.9148 41.9735 22.6193C42.4224 22.3182 42.7804 21.9205 43.0474 21.4261C43.3145 20.9261 43.448 20.3125 43.448 19.5852C43.448 18.7216 43.2463 17.946 42.8429 17.2585C42.4395 16.5653 41.8315 16.017 41.019 15.6136C40.2065 15.2045 39.1809 15 37.9423 15H31.5502Z" fill="url(#paint2_linear_950_83886)"/>
<defs>
<linearGradient id="paint0_linear_950_83886" x1="0.666016" y1="48" x2="48.666" y2="0" gradientUnits="userSpaceOnUse">
<stop stop-color="#C736B9"/>
<stop offset="1" stop-color="#571A97"/>
</linearGradient>
<linearGradient id="paint1_linear_950_83886" x1="0.666016" y1="48" x2="48.666" y2="0" gradientUnits="userSpaceOnUse">
<stop stop-color="#C736B9"/>
<stop offset="1" stop-color="#571A97"/>
</linearGradient>
<linearGradient id="paint2_linear_950_83886" x1="0.666016" y1="48" x2="48.666" y2="0" gradientUnits="userSpaceOnUse">
<stop stop-color="#C736B9"/>
<stop offset="1" stop-color="#571A97"/>
</linearGradient>
</defs>
</svg>
