<svg width="48" height="48" viewBox="0 0 48 48" fill="none" xmlns="http://www.w3.org/2000/svg">
<g clip-path="url(#clip0_981_84190)">
<path d="M0 12C0 5.37258 5.37258 0 12 0H36C42.6274 0 48 5.37258 48 12V36C48 42.6274 42.6274 48 36 48H12C5.37258 48 0 42.6274 0 36V12Z" fill="#FED42B"/>
<mask id="mask0_981_84190" style="mask-type:luminance" maskUnits="userSpaceOnUse" x="-5" y="-5" width="58" height="58">
<path d="M24.1541 52.8028C40.0167 52.8028 52.8069 40.0126 52.8069 24.1499C52.8069 8.28725 40.0167 -4.50293 24.1541 -4.50293C8.29136 -4.50293 -4.49883 8.28725 -4.49883 24.1499C-4.64174 40.0126 8.36281 52.8028 24.1541 52.8028Z" fill="white"/>
</mask>
<g mask="url(#mask0_981_84190)">
<path d="M10.0747 11.2172L-15.1484 44.2288L-8.43181 51.8743L10.289 27.0799L8.35978 40.6561L18.8635 44.3002L31.6537 23.8645C31.082 27.6516 30.1531 36.4403 38.5132 39.1556C51.6606 43.157 63.1647 19.5058 68.4522 7.50164L60.8067 3.50024C54.8761 15.9332 45.73 29.6523 42.0859 28.7234C38.4417 27.7945 41.7286 16.1475 43.8008 8.6449V8.43054L32.1538 4.42914L18.2204 27.1514L20.1496 14.7185L10.0747 11.2172Z" fill="black"/>
</g>
</g>
<defs>
<clipPath id="clip0_981_84190">
<rect width="48" height="48" rx="8" fill="white"/>
</clipPath>
</defs>
</svg>
