<svg width="22" height="22" viewBox="0 0 22 22" fill="none" xmlns="http://www.w3.org/2000/svg">
<g clip-path="url(#clip0_1732_134577)">
<path d="M9.06804 16.5955C9.7702 15.941 9.87832 14.9157 9.30954 14.3056C8.74076 13.6954 7.71047 13.7314 7.00831 14.3859C6.30616 15.0405 6.19804 16.0657 6.76682 16.6759C7.3356 17.286 8.36589 17.25 9.06804 16.5955Z" fill="#F35E46"/>
<path d="M18.3587 16.5962C19.0608 15.9416 19.169 14.9164 18.6002 14.3062C18.0314 13.6961 17.0011 13.7321 16.2989 14.3866C15.5968 15.0412 15.4887 16.0664 16.0574 16.6765C16.6262 17.2867 17.6565 17.2507 18.3587 16.5962Z" fill="#F35E46"/>
<path d="M1.70039 8.58457C1.70039 8.17936 1.37191 7.85088 0.966699 7.85088C0.561493 7.85088 0.233008 8.17936 0.233008 8.58457C0.233008 8.98978 0.561493 9.31826 0.966699 9.31826C1.37191 9.31826 1.70039 8.98978 1.70039 8.58457Z" fill="#F35E46"/>
<path d="M14.8884 15.3373C15.1492 14.0483 16.3669 13.0239 17.6757 13.0239C18.936 13.0239 19.8444 13.9739 19.8195 15.1955C21.1824 15.2312 21.5618 13.4364 21.5618 13.4364C21.6766 12.9345 21.848 11.9561 21.9915 10.9958C22.0386 10.6993 22.0024 10.3955 21.8871 10.1183C21.5308 9.28664 21.1003 8.48877 20.6006 7.73443C20.128 7.02932 19.3352 6.61166 18.4303 6.59662C17.8906 6.58803 17.3608 6.58287 16.9607 6.58287L16.9573 6.57943C16.9057 5.71662 16.2767 5.05576 15.3937 4.9767C14.8192 4.92557 12.5436 4.88818 11.4513 4.88818C11.0173 4.88818 10.3947 4.8942 9.76477 4.90451V4.90193H2.18594C2.08954 4.90188 1.99408 4.92082 1.90502 4.95768C1.81595 4.99455 1.73502 5.0486 1.66686 5.11676C1.5987 5.18492 1.54464 5.26585 1.50778 5.35492C1.47092 5.44399 1.45197 5.53945 1.45203 5.63584V5.63928C1.45203 5.83301 1.52899 6.01881 1.66598 6.1558C1.80297 6.29279 1.98877 6.36975 2.1825 6.36975H3.70918C3.89301 6.3833 4.06492 6.46585 4.19044 6.60085C4.31595 6.73585 4.38579 6.91331 4.38594 7.09764V7.1015C4.38622 7.19799 4.36747 7.29359 4.33077 7.38282C4.29407 7.47205 4.24013 7.55317 4.17205 7.62154C4.10396 7.68991 4.02306 7.74417 3.93398 7.78124C3.8449 7.81831 3.74938 7.83745 3.65289 7.83756H2.87C2.67547 7.83756 2.48891 7.91484 2.35135 8.05239C2.2138 8.18994 2.13652 8.37651 2.13652 8.57104C2.13647 8.66739 2.1554 8.76282 2.19223 8.85186C2.22907 8.9409 2.28309 9.0218 2.3512 9.08996C2.41932 9.15811 2.50019 9.21218 2.58921 9.24907C2.67823 9.28596 2.77364 9.30494 2.87 9.30494H3.65289C3.84753 9.30494 4.03421 9.38226 4.17184 9.5199C4.30947 9.65753 4.3868 9.8442 4.3868 10.0388C4.3868 10.2335 4.30947 10.4202 4.17184 10.5578C4.03421 10.6954 3.84753 10.7728 3.65289 10.7728H0.724141C0.529571 10.7728 0.342964 10.85 0.205342 10.9876C0.0677206 11.1251 -0.00965171 11.3117 -0.00976562 11.5062C-0.00976562 11.7009 0.0675564 11.8875 0.205191 12.0252C0.342825 12.1628 0.529497 12.2401 0.724141 12.2401H3.65289C3.84753 12.2401 4.03421 12.3175 4.17184 12.4551C4.30947 12.5927 4.3868 12.7794 4.3868 12.974C4.38657 13.1685 4.30915 13.355 4.17154 13.4924C4.03393 13.6299 3.84739 13.7071 3.65289 13.7071H2.74711C2.55258 13.7071 2.36602 13.7844 2.22846 13.9219C2.09091 14.0595 2.01363 14.246 2.01363 14.4406C2.01363 14.6351 2.0909 14.8217 2.22844 14.9594C2.36598 15.097 2.55254 15.1744 2.74711 15.1745L5.63719 15.1723L5.87738 14.5738C6.36938 13.6663 7.3482 13.0235 8.38461 13.0235C9.69387 13.0235 10.6237 14.0487 10.5214 15.3386H14.8879M16.8933 7.60037C17.277 7.60037 17.7737 7.60553 18.2722 7.61369C18.8763 7.62357 19.4048 7.90115 19.7219 8.37467C20.0606 8.88531 20.3651 9.41786 20.6333 9.96881C20.7751 10.2576 20.5143 10.6335 20.1727 10.6335H16.5096L16.8933 7.60037Z" fill="#F35E46"/>
<path d="M9.3441 9.07162H8.6652L8.7941 8.14178H9.47258C9.47258 8.14178 9.97059 8.10955 9.88895 8.6067C9.8911 8.6067 9.83395 9.07162 9.3441 9.07162Z" fill="#F35E46"/>
</g>
<defs>
<clipPath id="clip0_1732_134577">
<rect width="22" height="22" fill="white"/>
</clipPath>
</defs>
</svg>
