<svg width="64" height="52" viewBox="0 0 64 52" fill="none" xmlns="http://www.w3.org/2000/svg">
<path d="M62.125 41.3125H1.875C0.8395 41.3125 0 42.152 0 43.1875C0 47.6748 3.63763 51.3125 8.125 51.3125H55.875C60.3623 51.3125 64 47.6749 64 43.1875C64 42.152 63.1605 41.3125 62.125 41.3125ZM37 6.686V5.6875C37 2.92613 34.7614 0.6875 32 0.6875C29.2386 0.6875 27 2.92613 27 5.6875V6.686C28.6404 6.43913 30.3104 6.3125 32 6.3125C33.6896 6.3125 35.3596 6.43913 37 6.686ZM52.7713 18.6663C47.223 13.118 39.8464 10.0625 32 10.0625C24.1536 10.0625 16.777 13.118 11.2288 18.6663C6.12488 23.7701 3.1325 30.4217 2.68563 37.5625H61.3143C60.8674 30.4217 57.8751 23.7701 52.7713 18.6663Z" fill="#A0366B"/>
</svg>
