<svg width="64" height="64" viewBox="0 0 64 64" fill="none" xmlns="http://www.w3.org/2000/svg">
<path d="M63.3308 18.4106C62.2649 14.2305 59.9929 10.626 56.7606 7.98688C53.6117 5.416 49.7543 4 45.8986 4C42.9426 4 40.1232 4.79588 37.5182 6.36525C35.4611 7.605 33.6106 9.291 31.9943 11.3955C28.3182 6.604 23.4647 4 18.0964 4C14.2424 4 10.3864 5.416 7.23806 7.98688C4.00669 10.626 1.73519 14.23 0.669315 18.41C-0.112435 21.476 -0.468435 25.7788 1.07406 30.9535H10.7601L14.2576 23.9579C14.4133 23.6464 14.6526 23.3845 14.9488 23.2014C15.245 23.0183 15.5863 22.9213 15.9344 22.9212C16.6448 22.9212 17.2938 23.3226 17.6112 23.9579L23.9666 36.6684L30.3221 23.9579C30.4777 23.6464 30.717 23.3844 31.0131 23.2013C31.3093 23.0182 31.6506 22.9212 31.9988 22.9212C32.7088 22.9212 33.3577 23.3226 33.6756 23.9579L37.1731 30.9535H50.2323C51.2681 30.9535 52.1068 31.7929 52.1068 32.828C52.1068 33.8636 51.2681 34.703 50.2323 34.703H36.0144C35.3044 34.703 34.6557 34.3018 34.3377 33.6664L31.9989 28.9881L25.6433 41.6986C25.4876 42.01 25.2483 42.2719 24.9521 42.4549C24.656 42.6379 24.3147 42.7348 23.9666 42.7348C23.6184 42.7348 23.2772 42.6379 22.981 42.4549C22.6849 42.2719 22.4455 42.01 22.2898 41.6986L15.9348 28.9881L13.5956 33.6669C13.4398 33.9782 13.2004 34.24 12.9043 34.4229C12.6081 34.6059 12.2669 34.7029 11.9188 34.703H2.47831C3.10481 36.0926 3.87044 37.5311 4.80007 39.013C9.90356 47.1525 18.7513 54.6939 31.0961 61.4277C31.3714 61.578 31.68 61.6568 31.9937 61.6569C32.3074 61.657 32.616 61.5784 32.8914 61.4282C45.2401 54.6932 54.0902 47.1524 59.1961 39.0136C64.7127 30.2198 64.4896 22.9561 63.3308 18.4106Z" fill="#A0366B"/>
</svg>
