<svg width="64" height="64" viewBox="0 0 64 64" fill="none" xmlns="http://www.w3.org/2000/svg">
<g clip-path="url(#clip0_4821_7896)">
<path fill-rule="evenodd" clip-rule="evenodd" d="M38.1481 8.17066L32.2262 13.9085C32.1013 14.0302 31.8988 14.0308 31.7733 13.9085L25.8514 8.17066C25.7075 8.03161 25.5714 7.88573 25.4445 7.73426C24.6878 6.83413 24.1526 5.66086 24.0283 4.48822C23.9001 3.29136 24.1979 2.09325 25.1144 1.17264C25.213 1.07332 25.3163 0.9802 25.4234 0.89267C25.887 0.513996 26.4057 0.269411 26.9461 0.13346C27.8909 -0.103677 28.9002 -0.00683376 29.7831 0.282449C30.6694 0.572352 31.436 1.06028 31.8897 1.60036C31.9291 1.6463 31.9653 1.69347 32.0001 1.74065C32.0343 1.69347 32.0711 1.6463 32.1099 1.60036C32.5636 1.06028 33.3301 0.572352 34.2171 0.282449C35.1 -0.00683376 36.1086 -0.103677 37.0534 0.13346C37.5938 0.269411 38.1126 0.513996 38.5768 0.89267C38.6833 0.9802 38.7865 1.07332 38.8851 1.17264C39.8023 2.09325 40.0995 3.29136 39.9719 4.48822C39.847 5.66086 39.3118 6.83413 38.5551 7.73426C38.4282 7.88573 38.2921 8.03161 38.1481 8.17066Z" fill="#A0366B"/>
<path fill-rule="evenodd" clip-rule="evenodd" d="M44.919 31.2008C43.6574 34.6734 41.3217 37.8155 38.066 40.179C38.0598 40.1841 38.0536 40.1886 38.0474 40.193L32.471 43.9368C32.4214 43.9764 32.358 44 32.2885 44C32.1287 44 32 43.8749 32 43.7205V35.0537C32 33.0067 32.5426 31.0617 33.5018 29.3497C34.4914 27.5834 35.9264 26.0653 37.6679 24.9378L44.8584 20.0588C44.8866 20.0371 44.9204 20.0205 44.9583 20.0103C45.1118 19.9688 45.2702 20.0563 45.3122 20.2043C46.3686 23.8996 46.1853 27.7161 44.919 31.2008Z" fill="#A0366B"/>
<path fill-rule="evenodd" clip-rule="evenodd" d="M19.081 31.2008C20.3426 34.6734 22.6783 37.8155 25.934 40.179C25.9402 40.1841 25.9464 40.1886 25.9526 40.193L31.529 43.9368C31.5786 43.9764 31.642 44 31.7115 44C31.8713 44 32 43.8749 32 43.7205V35.0537C32 33.0067 31.4574 31.0617 30.4982 29.3497C29.5086 27.5834 28.0736 26.0653 26.3321 24.9378L19.1416 20.0588C19.1134 20.0371 19.0796 20.0205 19.0417 20.0103C18.8882 19.9688 18.7298 20.0563 18.6878 20.2043C17.6314 23.8996 17.8147 27.7161 19.081 31.2008Z" fill="#A0366B"/>
<path fill-rule="evenodd" clip-rule="evenodd" d="M41.2284 18.401C40.3272 21.0051 38.6581 23.3613 36.3328 25.1343C36.3283 25.1381 36.3238 25.1412 36.3193 25.1443L32.3364 27.9531C32.301 27.9825 32.2554 28 32.2058 28C32.092 28 32 27.9061 32 27.791V21.2898C32 19.7547 32.3872 18.2958 33.0723 17.0123C33.7798 15.6874 34.8044 14.549 36.0484 13.7041L41.1846 10.0442C41.2052 10.028 41.2291 10.0148 41.2561 10.0073C41.3654 9.97728 41.4786 10.0424 41.5088 10.1531C42.2633 12.925 42.1321 15.7869 41.2284 18.401Z" fill="#A0366B"/>
<path fill-rule="evenodd" clip-rule="evenodd" d="M22.7716 18.401C23.6728 21.0051 25.3419 23.3613 27.6672 25.1343C27.6717 25.1381 27.6762 25.1412 27.6807 25.1443L31.6636 27.9531C31.699 27.9825 31.7446 28 31.7942 28C31.908 28 32 27.9061 32 27.791V21.2898C32 19.7547 31.6128 18.2958 30.9277 17.0123C30.2202 15.6874 29.1956 14.549 27.9516 13.7041L22.8154 10.0442C22.7948 10.028 22.7709 10.0148 22.7439 10.0073C22.6346 9.97728 22.5214 10.0424 22.4912 10.1531C21.7367 12.925 21.8679 15.7869 22.7716 18.401Z" fill="#A0366B"/>
<path fill-rule="evenodd" clip-rule="evenodd" d="M46.7652 49.0673C45.323 53.1189 42.6529 56.7853 38.9323 59.5419C38.9255 59.5477 38.918 59.5528 38.9105 59.5579L32.5388 63.9263C32.4812 63.9724 32.4087 64 32.3294 64C32.1471 64 32 63.8545 32 63.6737V53.5626C32 51.1739 32.6194 48.9045 33.716 46.9075C34.8471 44.8471 36.4871 43.0764 38.4775 41.7609L46.6947 36.0687C46.7279 36.0431 46.7665 36.0239 46.8092 36.0117C46.984 35.9642 47.1657 36.0655 47.2138 36.2386C48.4215 40.5493 48.2114 45.0022 46.7652 49.0673Z" fill="#A0366B"/>
<path fill-rule="evenodd" clip-rule="evenodd" d="M17.2348 49.0673C18.677 53.1189 21.3471 56.7853 25.0677 59.5419C25.0745 59.5477 25.082 59.5528 25.0895 59.5579L31.4612 63.9263C31.5188 63.9724 31.5913 64 31.6706 64C31.8529 64 32 63.8545 32 63.6737V53.5626C32 51.1739 31.3806 48.9045 30.284 46.9075C29.1529 44.8471 27.5129 43.0764 25.5225 41.7609L17.3053 36.0687C17.2721 36.0431 17.2335 36.0239 17.1908 36.0117C17.016 35.9642 16.8343 36.0655 16.7862 36.2386C15.5785 40.5493 15.7886 45.0022 17.2348 49.0673Z" fill="#A0366B"/>
</g>
<defs>
<clipPath id="clip0_4821_7896">
<rect width="64" height="64" fill="white"/>
</clipPath>
</defs>
</svg>
