<svg width="64" height="58" viewBox="0 0 64 58" fill="none" xmlns="http://www.w3.org/2000/svg">
<path d="M57.875 23.125H63.9712C63.9902 22.7121 64 22.3354 64 22C64 18.2176 62.6833 15.4971 60.0864 13.9139C58.6341 13.0284 56.8051 12.4943 54.3545 12.262L58.7329 4.96475C59.2656 4.07675 58.9777 2.925 58.0897 2.39225C57.2019 1.85925 56.0501 2.14725 55.5173 3.03538L53 7.23063V2C53 0.9645 52.1605 0.125 51.125 0.125C50.0895 0.125 49.25 0.9645 49.25 2V7.23063L46.7327 3.03525C46.2 2.14725 45.048 1.85963 44.1603 2.39213C43.2723 2.92488 42.9844 4.07662 43.5171 4.96462L47.8955 12.2619C45.4449 12.494 43.6159 13.0282 42.1636 13.9137C39.5667 15.4971 38.25 18.2176 38.25 22C38.25 27.4609 40.821 44.2765 44.935 52.4615C46.766 56.1042 48.7907 57.875 51.125 57.875C53.4593 57.875 55.484 56.1042 57.315 52.4615C58.3081 50.4856 59.2547 47.9405 60.1399 44.875H55.875C54.8395 44.875 54 44.0355 54 43C54 41.9645 54.8395 41.125 55.875 41.125H61.1295C61.5466 39.3968 61.9259 37.6234 62.2621 35.875H56.875C55.8395 35.875 55 35.0355 55 34C55 32.9645 55.8395 32.125 56.875 32.125H62.9261C63.2303 30.2458 63.4754 28.4629 63.6543 26.875H57.875C56.8395 26.875 56 26.0355 56 25C56 23.9645 56.8395 23.125 57.875 23.125ZM34.5 22C34.5 19.224 35.0759 17.0424 35.9386 15.3296C32.3916 13.8581 28.3514 13.7097 24.6108 15.0222C24.2353 12.1172 22.8581 6.83275 17.8385 4.323C16.9122 3.85962 15.786 4.23537 15.323 5.1615C14.86 6.08763 15.2354 7.214 16.1616 7.677C19.3141 9.25325 20.4128 12.6806 20.7955 14.9054C10.4911 11.5529 0 19.286 0 30C0 34.252 1.90563 40.2741 4.85488 45.3425C6.9265 48.9026 11.2428 54.875 16.875 54.875C19.4551 54.875 21.112 54.2366 22.875 53.2789C24.638 54.2366 26.2949 54.875 28.875 54.875C33.2329 54.875 36.8025 51.2996 39.1545 48.0325C36.3684 39.4079 34.5 27.1331 34.5 22Z" fill="#A0366B"/>
</svg>
